<svg xmlns="http://www.w3.org/2000/svg" viewBox="0 0 11.027 15.891"><path fill="#bcbec0" d="M9.667 3.963L3.122.184c-.364-.21-.696-.234-.94-.104l-.445.256.098.169a1.37 1.37 0 00-.074.465v7.557c0 .864.613 1.925 1.36 2.357l6.546 3.778c.145.084.286.139.418.165l.104.181.44-.253c.246-.143.398-.447.398-.878V6.32c0-.865-.612-1.925-1.36-2.357z"/><path fill="#fff" d="M10.609 14.118c0 .865-.612 1.218-1.36.786l-6.546-3.779c-.748-.432-1.36-1.493-1.36-2.356V1.212c0-.865.612-1.218 1.36-.786l6.545 3.778c.749.433 1.36 1.493 1.36 2.357z"/><path fill="#303033" d="M9.323 4.057L2.778.28C2.375.046 2.008.023 1.742.173L1.74.176l-.005.002L.717.766l.587 1.022v6.9c0 .938.661 2.083 1.474 2.552l5.904 3.409.62 1.082 1.106-.637c.24-.164.389-.483.389-.926V6.611c0-.94-.662-2.084-1.474-2.554z"/><path d="M10.223 13.342v-5.04l.21-.12v5.039z"/><path fill="#535359" d="M8.324 15.595l-6.545-3.779C.967 11.347.305 10.202.305 9.264V1.706c0-.938.662-1.32 1.474-.85l6.545 3.778c.813.469 1.474 1.614 1.474 2.553v7.557c0 .939-.661 1.32-1.474.851z"/><g fill="#666"><path d="M8.324 4.765L1.779.987C1.415.777 1.083.753.839.882l-.445.256.098.17a1.375 1.375 0 00-.073.464v7.557c0 .865.612 1.925 1.36 2.357l6.545 3.778c.146.085.286.139.418.165l.105.181.44-.253c.245-.142.398-.446.398-.878V7.122c0-.865-.613-1.925-1.361-2.357z"/><path d="M9.266 14.92c0 .865-.612 1.218-1.36.786L1.36 11.927C.612 11.495 0 10.435 0 9.571V2.013C0 1.15.612.796 1.36 1.228l6.545 3.779c.748.432 1.361 1.492 1.361 2.356z"/></g><path fill="#0a8074" d="M3.359 4.345a.44.44 0 00-.2-.345c-.051-.03-.098-.033-.134-.016l-.086.049.025.045c-.001.011-.003.024-.003.037 0 .127.09.281.199.345.01.006.022.01.032.014l.026.047.086-.05c.033-.022.055-.065.055-.126z"/><path fill="#24d2c1" d="M3.278 4.391c0 .127-.089.178-.199.115a.44.44 0 01-.198-.345c0-.127.088-.178.198-.114a.44.44 0 01.2.344z"/><path fill="#0a8074" d="M4.409 4.951a.44.44 0 00-.199-.344c-.052-.03-.099-.034-.134-.017l-.087.05.026.044a.236.236 0 00-.003.038c0 .127.088.28.198.344l.033.015.026.046.085-.05c.034-.022.055-.065.055-.126z"/><path fill="#24d2c1" d="M4.328 4.997c0 .127-.089.179-.199.115a.44.44 0 01-.198-.344c0-.127.089-.178.198-.115a.44.44 0 01.2.344z"/><path fill="#0a8074" d="M5.46 5.558a.44.44 0 00-.2-.345c-.051-.03-.099-.034-.134-.017l-.087.05.026.044a.204.204 0 00-.004.038c0 .127.09.28.2.344.01.006.02.011.031.015l.027.046.085-.049c.034-.022.055-.066.055-.126z"/><path fill="#24d2c1" d="M5.379 5.603c0 .127-.09.179-.2.115a.439.439 0 01-.198-.345c0-.126.09-.177.199-.114a.44.44 0 01.199.344z"/><path fill="#0a8074" d="M6.51 6.164a.44.44 0 00-.2-.345c-.051-.03-.098-.033-.133-.016l-.087.05.025.044a.235.235 0 00-.003.037c0 .127.089.28.199.345.01.006.021.01.032.015l.026.046.085-.05c.034-.021.056-.065.056-.126z"/><path fill="#24d2c1" d="M6.429 6.21c0 .127-.09.178-.2.115a.44.44 0 01-.198-.345c0-.126.09-.178.199-.114.11.063.199.217.199.344z"/><g fill="#24d2c1"><path d="M4.213 9.195c-.256-.148-.495-.167-.671-.055-.037.024-.036.095.004.16.039.066.1.1.137.077.14-.089.328-.074.53.043.182.105.376.314.52.56.038.065.1.1.138.076.018-.01.028-.034.028-.062a.2.2 0 00-.03-.097c-.182-.31-.42-.566-.656-.702zm1.187.159c-.301-.504-.763-.984-1.178-1.224-.432-.25-.914-.308-1.196-.145-.038.022-.038.094 0 .16s.1.101.138.08c.248-.145.674-.092 1.058.13.367.212.776.637 1.043 1.084.038.066.1.1.137.076.018-.011.027-.034.027-.062 0-.03-.01-.066-.03-.1z"/><path d="M4.203 8.632c-.342-.197-.678-.224-.921-.073-.037.023-.036.095.002.16.04.066.1.1.138.077.204-.126.495-.103.78.062.27.155.573.483.793.855.038.066.1.1.138.077.018-.011.027-.034.027-.062a.2.2 0 00-.03-.098c-.254-.432-.61-.815-.927-.998zm0 1.158c-.162-.093-.293-.017-.293.17 0 .186.131.413.293.506.161.094.292.018.292-.168a.648.648 0 00-.292-.508z"/></g></svg>