<svg xmlns="http://www.w3.org/2000/svg" fill="none" viewBox="0 0 322.904 193.94"><path stroke="#000" stroke-width="2" d="M289.452 160.97v-56"/><path fill="#dae1e7" d="m289.452 32.97-128-32v64Z"/><path fill="#fff" stroke="#000" stroke-width="2" d="M161.452 192.97v-128m0 128-128-32v-56m128 88 128-32m-128-96-128-32m128 32-32 64c-50.085-12.509-77.915-19.49-128-32l32-64m128 32 32 64 128-32-32-64m-128 32 128-32m-128 32v-64m-128 32 128-32m0 0 128 32"/><path fill="#fff" d="m178.58 96.51-15.354-30.715 62.288-15.572c34.26-8.565 62.522-15.572 62.807-15.572.592 0 31.227 61.003 30.833 61.398-.325.325-123.385 31.14-124.44 31.16-.517.01-5.938-10.305-16.133-30.7z"/><path fill="#fff" d="m162.679 130.984.028-60.39 14.97 29.867c8.234 16.426 15.09 29.866 15.233 29.866.297 0 93.105-23.162 94.513-23.587.861-.26.902 1.152.776 26.492L288.065 160l-61.285 15.326a211949.77 211949.77 0 0 0-62.707 15.686l-1.423.361zm-65.58 44.68-62.19-15.595v-53.405l47.192 11.817c25.956 6.499 47.366 11.823 47.579 11.831.213.008 7.124-13.425 15.357-29.851l14.971-29.867.028 60.38c.016 33.209-.146 60.358-.36 60.332-.213-.026-28.373-7.065-62.577-15.642z"/><path fill="#fff" d="M66.457 112.013C33.319 103.7 5.567 96.734 4.787 96.536l-1.418-.36 15.31-30.633C27.099 48.694 34.07 34.82 34.173 34.71c.217-.233 125.374 31.007 125.374 31.294 0 .108-6.865 13.927-15.257 30.708-13.53 27.055-15.39 30.506-16.42 30.464-.64-.026-28.276-6.85-61.413-15.164zM98.88 48.107c-32.656-8.192-59.463-14.983-59.572-15.09-.108-.109 26.727-6.92 59.634-15.137 32.906-8.217 60.12-15.044 60.476-15.172.513-.185.647 6.05.647 30.077 0 28.54-.053 30.307-.905 30.263-.498-.026-27.624-6.75-60.28-14.941zm79.7 48.403-15.354-30.715 62.288-15.572c34.26-8.565 62.522-15.572 62.807-15.572.592 0 31.227 61.003 30.833 61.398-.325.325-123.385 31.14-124.44 31.16-.517.01-5.938-10.305-16.133-30.7z"/></svg>
