<svg xmlns="http://www.w3.org/2000/svg" xml:space="preserve" viewBox="0 0 700 700"><path fill="currentColor" d="M326.19 699.782c-2.49-.23-11.755-1.321-20.59-2.427l-16.065-2.01-11.599-2.567c-15.745-3.483-37.153-9.708-50.857-14.788l-11.339-4.203-.37-6.58-.372-6.578-2.175-4.179-2.175-4.179 8.807-9.925 8.807-9.925 11.528-10.285c59.657-53.222 132.857-84.05 204.473-86.114l10.942-.315 1.215 4.03c1.754 5.815 5.107 11.994 8.786 16.19l3.203 3.654 5.341 3.019 5.341 3.019v1.243c0 1.926-6.723 26.173-10.217 36.847-7.904 24.15-20.286 52.311-32.333 73.542l-8.29 14.608-8.027 1.688c-4.415.929-15.496 2.676-24.625 3.883l-16.598 2.194-24.142.287c-13.278.158-26.18.1-28.669-.13zm125.917-15.227c.188-.415 4.48-9.142 9.538-19.393 14.28-28.942 25.658-60.114 32.125-88.01l1.837-7.92 1.047-.29c.576-.159 4.126-1.003 7.89-1.876l6.844-1.586 5.964-4.19 5.964-4.19 2.384-3.14c1.31-1.728 3.12-4.575 4.021-6.326l1.638-3.185 11.84 3.518c20.042 5.956 46.376 17.691 63.378 28.243l7.278 4.517-.896 1.676c-.492.921-7.003 7.835-14.468 15.364l-13.574 13.688-12.032 9.648c-34.601 27.744-68.882 46.737-108.836 60.297-12.637 4.29-12.433 4.236-11.942 3.155zM150.149 637.27c-14.312-10.094-27.316-20.641-40.463-32.82l-11.798-10.93-9.262-10.655c-11.891-13.68-26.647-33.428-35.351-47.315l-6.849-10.925-9.927-20.148c-5.46-11.082-10.22-21.175-10.576-22.43l-.649-2.28 5.353 2.144c10.37 4.154 19.575 7.107 32.976 10.58 7.446 1.93 13.593 3.602 13.66 3.717.067.115.705 2.93 1.418 6.254.712 3.324 2.197 7.825 3.3 10l2.003 3.956 4.903 5.192 4.903 5.192 5.647 2.769 5.647 2.77 5.755 1.071 5.755 1.072 3.393 12.7c7.471 27.974 26.434 74.208 38.366 93.542 2.626 4.256 2.89 4.368-8.204-3.456zm43.259 3.555l-2.515-1.038-6.6.524-6.6.524-5.639-10.252c-11.603-21.095-20.56-41.181-28.159-63.142-3.875-11.202-11.147-36.397-10.606-36.745.147-.094 2.341-1.36 4.877-2.813l4.611-2.642 3.804-4.217 3.803-4.216 2.402-5.253 2.4-5.253 27.913-.632c39.886-.902 62.502-3.108 95.405-9.307l18.201-3.43 18.012 6.055c23.192 7.795 41.112 13.027 67.082 19.586l20.905 5.28-5.313.686c-2.922.377-11.65 2.31-19.396 4.295-49.207 12.609-93.58 35.03-134.65 68.038l-10.203 8.2-18.259 18.46c-10.042 10.152-18.416 18.43-18.61 18.394-.192-.035-1.482-.53-2.865-1.102zm-36.614-153.072c-.249-.775-.99-3.223-1.646-5.44-3.796-12.81-15.689-23.884-28.81-26.824l-5.357-1.2-.156-11.678c-.178-13.225.233-34.685.673-35.169.16-.176 3.965 1.985 8.454 4.803 38.932 24.435 81.206 46.28 124.019 64.085 6.476 2.693 11.682 4.985 11.568 5.092-.529.499-23.778 3.701-36.42 5.017l-14.084 1.465-28.894.63-28.894.63zm-89.162-11.57c-12.949-3.41-32.576-10.112-44.326-15.134l-6.64-2.838-1.167-4.068C8.473 429.66 4.461 410.421 1.627 387.615L0 374.518l.106-27.2.107-27.201 1.286-10.578 1.286-10.577 4.965 6.548c19.791 26.101 48.078 53.362 81.246 78.298l14.79 11.12.361 30.648.362 30.647-5.692 2.77-5.691 2.768-3.63 3.728c-1.996 2.05-4.895 6.042-6.442 8.871l-2.813 5.144zm548.138 89.975c-8.519-5.616-28.33-15.966-40.515-21.168l-10.339-4.414 10.339-1.21c30.225-3.537 57.222-10.981 75.96-20.945l8.285-4.406-2.032 3.99c-8.13 15.959-32.679 52.522-35.056 52.211-.333-.043-3.322-1.87-6.641-4.058zm-85.48-46.455l-1.717-5.258-3.516-5.305-3.516-5.305-3.703-2.937c-2.036-1.615-5.904-4.002-8.595-5.304l-4.892-2.367.635-10.483c.35-5.766.636-13.74.636-17.723v-7.24l6.863-2.696 6.864-2.697 5.897-4.767 5.896-4.766 4.303-6.306 4.303-6.306 2.05-6.645 2.049-6.644-.062-8.71-.061-8.708-1.747-5.541-1.748-5.541 8.599-6.435c10.725-8.025 26.556-21.033 35.605-29.256l6.887-6.258 1.663.703c.915.386 3.926 1.596 6.693 2.687l5.03 1.985 10.059-.392 10.059-.391 5.235-2.665 5.235-2.664 6.333 7.137c3.483 3.926 9.6 11.49 13.594 16.81l7.26 9.672 5.99 10.578c7.114 12.564 11.575 23.475 14.306 34.99l1.999 8.43-.012 9.853-.012 9.854-3.172 9.49-3.172 9.489-3.46 5.226-3.46 5.226-6.365 5.962-6.363 5.962-7.713 4.814c-4.242 2.648-11.863 6.606-16.936 8.797l-9.224 3.982-12.164 3.34-12.164 3.338-13.016 2.063c-13.369 2.12-37.549 4.18-49.05 4.18h-6.486zm-79.994-1.364c-.83-.188-9.43-1.752-19.113-3.474-32.382-5.76-73.701-15.902-97.39-23.907l-8.364-2.827 19.558-5.714c32.884-9.607 61.389-20.334 94.988-35.745l14.325-6.57 5.959 5.525 5.959 5.525 5.318 2.654 5.318 2.654 5.833 1.207 5.834 1.207-.058 12.643c-.032 6.954-.371 14.406-.754 16.561l-.697 3.919-4.527 1.161c-2.49.64-6.696 2.253-9.347 3.586l-4.822 2.424-5.042 5.34-5.043 5.34-2.003 4.534-2.003 4.534-1.21-.116c-.666-.065-1.89-.272-2.72-.46zm-181.57-50.71c-54.639-22.315-92.269-41.776-141.544-73.2l-7.755-4.945.55-6.056c5.954-65.453 22.711-129.194 49.743-189.212l4.449-9.878 2.515.654c1.383.36 6.473.883 11.31 1.163l8.796.509 7.226-2.198 7.226-2.198 5.103-3.294 5.102-3.294 5.12-5.458 5.12-5.459 3.233-6.785 3.233-6.786 2.21.468c1.215.256 8.32 1.646 15.789 3.088 28.708 5.54 65.74 15.33 95.838 25.336l16.873 5.609-.774 3.66c-.426 2.012-.726 7.563-.667 12.335l.107 8.676 2.107 6.939 2.108 6.94 3.817 6.314 3.817 6.315 5.02 5.198 5.021 5.198 5.898 3.817c3.244 2.1 8.263 4.704 11.155 5.788l5.256 1.97 8.24 1.263 8.238 1.263 7.327-1.141c4.03-.628 8.05-1.419 8.935-1.759l1.607-.618 5.02 12.915c8.883 22.862 26.36 81.966 26.36 89.148 0 .403-2.91 2.124-6.469 3.825l-6.47 3.092-6.026 5.943-6.027 5.943-3.565 7.422-3.564 7.422-1.231 7.189-1.23 7.189 1.164 6.88c.64 3.784 1.293 7.748 1.448 8.809l.284 1.929-13.58 6.328c-20.49 9.548-46.692 19.821-71.835 28.166l-22.58 7.494-19.674 5.033c-10.82 2.769-20.924 5.006-22.453 4.972l-2.779-.062zm423.086-69.333c-7.384-16.867-22.204-39.125-37.745-56.688l-6.687-7.555.454-1.512c.25-.83 1.445-4.23 2.658-7.555l2.204-6.045-.414-8.796-.413-8.796-3.683-7.19-3.684-7.19 7.415-11.214c9.119-13.792 15.91-25.7 21.191-37.16 2.213-4.802 4.287-8.75 4.609-8.771.783-.054 8.289 24.154 11.387 36.73 5.843 23.713 9.095 47.072 10.242 73.543L700 355.21l-1.173 16.622c-.645 9.143-1.716 20.599-2.38 25.457l-1.208 8.835zM99.227 375.099c-1.936-1.475-9.858-7.726-17.603-13.89l-14.083-11.21-12.994-12.506c-20.754-19.977-36.27-38.301-45.977-54.296l-3.644-6.006 1.427-6.326c2.798-12.402 7.674-28.693 12.597-42.09l4.998-13.6 7.8-16.118c7.358-15.204 15.436-29.612 23.28-41.52l3.46-5.25 8.602-2.036c19.685-4.658 47.711-8.098 66.068-8.11l6.268-.004.613 2.77c1.323 5.984 2.807 10.054 5.634 15.449l2.948 5.626 5.395 5.337 5.395 5.336-3.524 7.675c-26.36 57.412-46.886 131.604-51.244 185.235-.76 9.343-.613 9.193-5.416 5.534zm428.932-3.385c-3.266-3.634-10.166-7.92-16.743-10.398l-6.297-2.374-5.784-.723-5.784-.724v-1.777c0-7.982-16.124-62.944-26.274-89.56l-5.922-15.528 2.266-1.589c4.366-3.06 9.538-8.176 12.303-12.172l2.79-4.032 8.675 4.686c27.605 14.906 54.776 31.606 74.806 45.977l14.344 10.291-.21 1.997c-.114 1.098-.933 5.17-1.819 9.05l-1.61 7.051 1.139 6.548 1.138 6.548 2.342 4.67 2.342 4.67-6.69 5.962c-15.319 13.652-40.43 33.56-42.332 33.56-.42 0-1.626-.96-2.68-2.133zm52.837-95.392c-19.611-14.82-56.747-38.127-82.199-51.588l-12.357-6.536.553-3.022c.304-1.663.818-7.33 1.142-12.593l.59-9.57-1.632-6.952-1.63-6.95-2.942-6.146-2.94-6.146-4.844-6-4.843-6.001-7.536-5.12-7.536-5.119-7.041-2.351-7.042-2.352-9.598-.505-9.6-.506-8.507 2.18-8.508 2.18-1.72-2.307c-.945-1.27-6.547-9.107-12.448-17.419-13.567-19.108-21.322-28.973-39.593-50.371L336.14 56l-22.029-21.985-22.029-21.986 4.745-4.824 4.744-4.824 13.252-1.191L328.076 0l19.615.015 19.616.014L379.01 1.06c24.576 2.166 50.536 7.525 76.314 15.755l14.586 4.657 13.888 5.95c37.834 16.206 67.913 35.254 99.702 63.137l9.988 8.762 12.506 13.6 12.505 13.6 10.033 13.342c12.693 16.877 24.002 34.94 33.02 52.739l7.056 13.928-3.723 9.36c-2.048 5.148-6.763 15.348-10.477 22.667l-6.753 13.307-8.28 12.487-8.28 12.487-5.141-1.957-5.14-1.956-9.088.341-9.086.34-7.015 3.527c-3.859 1.939-7.273 3.65-7.589 3.801-.315.152-3.484-1.924-7.041-4.612zM356.17 163.85c-32.082-10.89-58.443-17.91-94.486-25.167l-21.124-4.253-1.28-6.473-1.28-6.474-3.359-7.052-3.358-7.052-4.088-4.601-4.087-4.602 10.747-15.043c15.801-22.12 44.617-57.86 46.65-57.86.433 0 9.001 8.047 19.04 17.883 32.603 31.938 57.669 61.647 83.773 99.289l6.851 9.879-3.971 3.404c-2.184 1.873-5.706 5.927-7.826 9.01-2.12 3.083-3.893 5.533-3.94 5.444-.046-.09-8.264-2.939-18.262-6.332zM75.085 130.542c0-3.23 37.4-41.263 52.308-53.192 36.384-29.113 79.924-51.666 123.998-64.228l11.836-3.373 2.115 2.118 2.114 2.117-9.264 10.808c-16.162 18.855-33.457 41.32-45.04 58.501l-4.136 6.137-7.364-1.932-7.365-1.931-8.241.527-8.242.528-7.641 3.186-7.642 3.186-5.67 5.178-5.669 5.179-3.859 5.967-3.859 5.967-1.163 4.107c-.64 2.26-1.427 4.417-1.749 4.796l-.585.689-19.112 1.077-19.113 1.078-10.06 1.515c-5.532.833-11.53 1.79-13.328 2.124l-3.269.608z"/></svg>