<svg xmlns="http://www.w3.org/2000/svg" viewBox="0 0 512 537.878"><path d="M418.698 455.568h-69.982a11.455 11.455 0 01-11.455-11.455v-12.327a36.546 36.546 0 0131.146-35.946l48.71-6.71a11.425 11.425 0 013.109 22.637l-48.6 6.71a13.527 13.527 0 00-11.51 13.309v.709h58.582a11.455 11.455 0 010 22.91zm-256.53 0H92.187a11.455 11.455 0 010-22.91h58.582v-.872a13.636 13.636 0 00-11.563-13.364l-48.546-6.655a11.425 11.425 0 113.109-22.636l48.655 6.654a36.655 36.655 0 0131.2 36v12.328a11.455 11.455 0 01-11.454 11.455zM54.496 497.95a11.455 11.455 0 01-11.455-11.455V370.75a11.455 11.455 0 1122.91 0v115.965a11.455 11.455 0 01-11.455 11.236z"/><path d="M456.39 497.95a11.455 11.455 0 01-11.455-11.455V370.75a11.346 11.346 0 013.054-7.746l19.31-21 .6-23.4h-43.964a11.291 11.291 0 01-10.31-6.11l-37.473-72.109a28.8 28.8 0 00-22.254-10.91H157.259a28.8 28.8 0 00-22.254 10.91l-37.746 72.11a11.291 11.291 0 01-10.091 6.164H42.713v22.745l19.91 21.491a11.426 11.426 0 11-16.8 15.491l-19.31-21a22.2 22.2 0 01-6.655-15.982v-22.91a22.746 22.746 0 0122.855-22.363h37.146l34.91-66.982a12 12 0 011.036-1.637 51.71 51.71 0 0141.454-20.618H354.17a51.71 51.71 0 0141.019 20.4 12 12 0 011.036 1.636l34.637 67.201h37.31a22.746 22.746 0 0122.745 22.691v22.91a22.8 22.8 0 01-7.31 16.636l-15.6 17.018v111.547a11.455 11.455 0 01-11.617 11.018z"/><path d="M420.99 537.878a46.91 46.91 0 01-46.856-46.855v-4.31a11.455 11.455 0 0122.855 0v4.31a24 24 0 1047.946 0v-4.31a11.455 11.455 0 0122.91 0v4.31a46.91 46.91 0 01-46.856 46.855zm-331.095 0a46.91 46.91 0 01-46.855-46.855v-4.31a11.455 11.455 0 0122.91 0v4.31a24 24 0 1047.945 0v-4.31a11.455 11.455 0 0122.855 0v4.31a46.91 46.91 0 01-46.855 46.855z"/><path d="M418.698 497.95H92.186a11.455 11.455 0 010-22.855h326.512a11.455 11.455 0 010 22.855zm-135.383-42.382H227.57a11.455 11.455 0 110-22.91h55.746a11.455 11.455 0 110 22.91zm137.674-317.24a11.236 11.236 0 01-5.836-1.636c-.764-.436-74.02-43.637-160.42-43.637-86.4 0-158.183 42.874-158.892 43.31a11.455 11.455 0 11-11.891-19.528c3.163-1.909 77.837-46.636 170.783-46.636 92.946 0 169.093 44.727 172.093 46.582a11.455 11.455 0 01-5.837 21.273zm-258.82 50.183a11.455 11.455 0 01-4.91-21.819 250.911 250.911 0 0197.747-20.836 258.111 258.111 0 0198.619 20.836 11.421 11.421 0 11-9.6 20.728 239.13 239.13 0 00-88.91-18.655 229.093 229.093 0 00-88.037 18.655 12.11 12.11 0 01-4.91 1.09z"/><path d="M500.354 88.146a11.455 11.455 0 01-5.728-1.582c-1.09-.654-110.728-63.873-240.002-63.873S17.458 85.855 16.367 86.51A11.455 11.455 0 014.531 67.037C9.113 64.31 118.314 0 254.242 0S501.5 64.092 506.354 67.037a11.455 11.455 0 01-5.782 21.327z"/></svg>