<svg xmlns="http://www.w3.org/2000/svg" viewBox="0 0 512 537.87775"><path d="M418.69824877 455.5678681h-69.98246796a11.45465181 11.45465181 0 0 1-11.45465181-11.4546518v-12.3273872a36.54579387 36.54579387 0 0 1 31.14574373-35.9457883l48.70954317-6.7091532a11.42454704 11.42454704 0 0 1 3.10911978 22.63657382l-48.60045125 6.7091532a13.52739833 13.52739833 0 0 0-11.50919777 13.30921449v.70909749h58.58236211a11.45465181 11.45465181 0 0 1 0 22.90930362zm-256.52965458 0H92.18612623a11.45465181 11.45465181 0 0 1 0-22.90930362h58.58236211v-.87273537a13.63649025 13.63649025 0 0 0-11.56374373-13.36376045l-48.5459053-6.65460724a11.42454704 11.42454704 0 1 1 3.10911979-22.63657382l48.6549972 6.65460725a36.6548858 36.6548858 0 0 1 31.2002897 36.00033426v12.32738718a11.45465181 11.45465181 0 0 1-11.45465181 11.45465181zM54.49486718 497.9500798a11.45465181 11.45465181 0 0 1-11.45465181-11.45465181V370.74889875a11.45465181 11.45465181 0 1 1 22.90930362 0v115.96471308a11.45465181 11.45465181 0 0 1-11.45465181 11.23646797z"/><path d="M456.38950782 497.9500798a11.45465181 11.45465181 0 0 1-11.4546518-11.45465181V370.74889875a11.34555989 11.34555989 0 0 1 3.05457381-7.74552646l19.3092702-21.00019499.60000557-23.40021727h-43.96404457a11.29101393 11.29101393 0 0 1-10.30918663-6.10914763l-37.4730752-72.10976044a28.8002674 28.8002674 0 0 0-22.2547521-10.9091922H157.2594577a28.8002674 28.8002674 0 0 0-22.25475209 10.9091922L97.2589006 312.4938124a11.29101393 11.29101393 0 0 1-10.09100279 6.1636936H42.7129396v22.74566573l19.90927577 21.49110863a11.42604464 11.42604464 0 1 1-16.800156 15.49105293L26.51278919 357.3851383a22.20020613 22.20020613 0 0 1-6.65460724-15.98196657v-22.90930362A22.74566574 22.74566574 0 0 1 42.7129396 296.1300241h37.14579944l34.90941504-66.9824401a12.00011142 12.00011142 0 0 1 1.03637326-1.63637884 51.70957103 51.70957103 0 0 1 41.45493036-20.61837326h196.91091921a51.70957103 51.70957103 0 0 1 41.01856267 20.40018942 12.00011142 12.00011142 0 0 1 1.03637326 1.63637883l34.63668524 67.20062395h37.30943732a22.74566574 22.74566574 0 0 1 22.74566574 22.69111978v22.90930362a22.8002117 22.8002117 0 0 1-7.30915878 16.6365181l-15.60014484 17.01833983v111.54649025a11.45465181 11.45465181 0 0 1-11.6182897 11.01828412z"/><path d="M420.98917913 537.87772325a46.90952646 46.90952646 0 0 1-46.8549805-46.8549805v-4.30913092a11.45465181 11.45465181 0 0 1 22.85475766 0v4.30913092a24.00022284 24.00022284 0 1 0 47.94589972 0v-4.30913092a11.45465181 11.45465181 0 0 1 22.90930362 0v4.30913092a46.90952646 46.90952646 0 0 1-46.8549805 46.8549805zm-331.09398327 0a46.90952646 46.90952646 0 0 1-46.8549805-46.8549805v-4.30913092a11.45465181 11.45465181 0 0 1 22.90930363 0v4.30913092a24.00022284 24.00022284 0 1 0 47.94589971 0v-4.30913092a11.45465181 11.45465181 0 0 1 22.85475766 0v4.30913092a46.90952646 46.90952646 0 0 1-46.8549805 46.8549805z"/><path d="M418.69824877 497.9500798H92.18612623a11.45465181 11.45465181 0 0 1 0-22.85475766h326.51212254a11.45465181 11.45465181 0 0 1 0 22.85475766zm-135.3830752-42.3822117h-55.74597214a11.45465181 11.45465181 0 1 1 0-22.90930362h55.74597214a11.45465181 11.45465181 0 1 1 0 22.90930362zm137.67400556-317.23930917a11.23646797 11.23646797 0 0 1-5.83641782-1.63637883c-.76364346-.4363677-74.01886908-43.6367688-160.4196713-43.6367688-86.40080223 0-158.1832869 42.87312534-158.8923844 43.30949303a11.45465181 11.45465181 0 1 1-11.8910195-19.52745404c3.16366574-1.90910863 77.83708635-46.63679665 170.7834039-46.63679665 92.94631754 0 169.0924791 44.72768802 172.09250695 46.5822507a11.45465181 11.45465181 0 0 1-5.83641783 21.27292478zM162.1685942 188.51084305a11.45465181 11.45465181 0 0 1-4.90913649-21.8183844 250.9114206 250.9114206 0 0 1 97.74636211-20.8365571 258.11148745 258.11148745 0 0 1 98.61909749 20.8365571 11.42135641 11.42135641 0 1 1-9.60008914 20.72746518 239.12949302 239.12949302 0 0 0-88.90991643-18.65471866 229.0930362 229.0930362 0 0 0-88.03718105 18.65471866 12.10920334 12.10920334 0 0 1-4.90913649 1.09091922z"/><path d="M500.35355239 88.1462748a11.45465181 11.45465181 0 0 1-5.7273259-1.58183286c-1.09091923-.65455153-110.72830083-63.87332033-240.0022284-63.87332033S17.45815966 85.85534444 16.36724044 86.50989598A11.45465181 11.45465181 0 0 1 4.5307669 67.0369879C9.11262762 64.30968985 118.31364155.00000183 254.24217636.00000183S501.49901757 64.09150601 506.3536081 67.0369879a11.45465181 11.45465181 0 0 1-5.78187187 21.32747075z"/></svg>
