<svg xmlns="http://www.w3.org/2000/svg" viewBox="0 0 75 105"><g fill="#2c5aa0"><path fill="#f55" d="M37.499 0C16.822 0-.001 18.317-.001 40.832c0 10.937 6.086 24.982 18.088 41.744a217 217 0 0 0 17.825 21.727c.887.925 2.286.925 3.173 0a217 217 0 0 0 17.826-21.727c12.001-16.762 18.086-30.807 18.086-41.744C74.997 18.317 58.176 0 37.5 0"/><g fill="#fff"><path d="M61.63 49.255H13.368a.466.537 0 1 1 0-1.074H61.63a.466.537 0 0 1 0 1.074"/><path d="M53.432 34.359h-5.521c-.574 0-.574-2.394 0-2.394h5.521a1.038 1.197 0 0 1 0 2.394"/><path d="M53.548 38.509h-2.595a.519.598 0 0 1 0-1.197h2.04l-1.119-1.934a.519.598 0 0 1 .864-.664l1.242 2.148a.52.599 0 0 1 .087.332v.716a.52.598 0 0 1-.52.599M45.82 43.67h-4.728a.519.598 0 0 1 0-1.197h4.728a1.577 1.818 0 0 0 1.575-1.816V25.096a.519.598 0 0 1 1.038 0v15.562a2.616 3.016 0 0 1-2.613 3.013m-6.829.035h-3.788a.519.598 0 0 1 0-1.197h3.788a.519.598 0 0 1 0 1.197"/><path d="M26.405 44.618h2.076v-3.455l-2.076-.01zm0-5.86 2.076.01v-1.74l-2.076-.015zm21.211-11.773V24.59H28.383a1.98 2.283 0 0 0-1.978 2.28v7.748l2.076.015v-7.65z"/><path d="M29.504 36.437h-.003l-9.383-.069a.519.598 0 0 1 .003-1.197h.003l9.383.07a.519.598 0 0 1-.003 1.196m5.949 4.168h-.003l-12.26-.065a.519.598 0 0 1 .003-1.197h.002l12.261.066a.519.598 0 0 1-.002 1.197"/><path d="m25.655 38.755 1.038.005v-1.745l-1.038-.008zm22.303-6.057a.52.598 0 0 0 .52-.598v-7.67a.52.598 0 0 0-.52-.6h-20.16a2.145 2.474 0 0 0-2.143 2.472v8.312l1.038.007v-8.32a1.106 1.276 0 0 1 1.105-1.273h19.641V32.1a.52.598 0 0 0 .52.598m-17.12 16.395a2.86 3.297 0 1 1 2.869-3.297 2.868 3.306 0 0 1-2.87 3.297m0-5.397a1.821 2.1 0 1 0 1.831 2.1 1.829 2.108 0 0 0-1.832-2.1"/><path d="M26.693 44.473v-3.319l-1.038-.005v3.922a.52.598 0 0 0 .519.599h2.318a2.317 2.672 0 0 1 .298-1.197zm21.265 0H32.885a2.317 2.672 0 0 1 .297 1.197h18.154a2.317 2.672 0 0 1 .298-1.197zM58.51 38.27l-2.09-1.503-2.048-4.252-.025-.047a1.76 2.03 0 0 0-1.455-.886H48.02a.519.598 0 1 0 0 1.197h4.872a.723.834 0 0 1 .585.344l2.102 4.36a.518.597 0 0 0 .179.218l1.958 1.409v5.362h-1.988a2.317 2.672 0 0 1 .298 1.197h2.21a.52.598 0 0 0 .519-.599v-6.29a.519.598 0 0 0-.245-.508"/><path d="M53.681 49.093a2.86 3.297 0 1 1 2.87-3.297 2.868 3.306 0 0 1-2.87 3.297m0-5.397a1.821 2.1 0 1 0 1.832 2.1 1.829 2.108 0 0 0-1.832-2.1"/></g></g></svg>