<svg xmlns="http://www.w3.org/2000/svg" fill="none" viewBox="0 -31 118.656 93.358"><g stroke="#000" stroke-width="2"><g stroke-miterlimit="10" stroke-width="4.814"><path d="M1 44.065V4.982A3.98 3.98 0 0 1 4.982 1h87.43a3.98 3.98 0 0 1 3.982 3.982" transform="matrix(1.1841 0 0 1.80019 1.666 -28.467)"/><path d="M96.394 4.982v39.082a3.98 3.98 0 0 1-3.982 3.982H4.982A3.98 3.98 0 0 1 1 44.065" transform="matrix(1.1841 0 0 1.80019 1.666 -28.467)"/></g><path stroke-linecap="round" stroke-linejoin="round" stroke-width="7.2" d="m49.86-.99 9.49 19.034v14.304M22.136-.99l17.415 33.338m0-33.338L22.136 32.348m37.213-14.304L68.787-.99m8.987 0h16.338v2.587L77.818 29.781l-.008 2.567h18.71"/></g></svg>
