<svg xmlns="http://www.w3.org/2000/svg" viewBox="0 0 75 105"><g fill="#2c5aa0"><path fill="#f55" d="M37.499 0C16.822 0-.001 18.317-.001 40.832c0 10.937 6.086 24.982 18.088 41.744a217.003 217.003 0 0017.825 21.727c.887.925 2.286.925 3.173 0a217.003 217.003 0 0017.826-21.727c12.001-16.762 18.086-30.807 18.086-41.744C74.997 18.317 58.176 0 37.5 0z"/><g fill="#fff"><path fill-rule="evenodd" d="M38.36 37.451l12.473 1.778a.184.184 0 01.17.177l.069 1.514a.19.19 0 01-.156.194l-12.193 1.899c-1.687.194-2.772-.427-3.333-1.32a2.8 2.8 0 01-.406-1.46c-.003-.51.13-1.012.385-1.455.513-.883 1.525-1.496 2.983-1.33z"/><path d="M23.228 56.186a20.744 20.744 0 01-6.122-10.939 21.115 21.115 0 01-.427-4.213 20.82 20.82 0 0140.048-7.941 20.606 20.606 0 01-1.892 19.403 21.371 21.371 0 01-2.575 3.15.166.166 0 01-.235 0l-1.04-1.04a.177.177 0 01-.055-.038l-2.9-2.9a.166.166 0 010-.236l1.52-1.52a.166.166 0 01.236 0l2.235 2.23a19.015 19.015 0 001.303-1.93 18.364 18.364 0 001.123-2.248 17.886 17.886 0 001.005-3.288 18.108 18.108 0 00.346-3.268h-3.084a.17.17 0 01-.17-.17v-2.151a.173.173 0 01.17-.16h2.97A18.229 18.229 0 0054.1 33.3a18.575 18.575 0 00-3.326-4.85l-1.985 1.985a.17.17 0 01-.24 0l-1.52-1.521a.173.173 0 010-.236l1.915-1.916a18.416 18.416 0 00-5.037-2.88c-1.785-.685-2.973-1.084-4.948-1.16v2.72a.173.173 0 01-.17.17h-2.155a.17.17 0 01-.17-.17v-2.654c-1.975.187-4.591.693-6.334 1.455a18.27 18.27 0 00-4.885 3.15l1.988 1.989a.173.173 0 010 .235l-1.52 1.521a.17.17 0 01-.24 0l-1.964-1.964a18.198 18.198 0 00-4.307 10.772h3.056a.166.166 0 01.17.17v2.155a.166.166 0 01-.17.166h-3.039a18.492 18.492 0 00.458 2.907 18.267 18.267 0 00.987 2.956 18.676 18.676 0 001.234 2.367 18.153 18.153 0 001.448 2.02l2.453-2.454a.177.177 0 01.24 0l1.52 1.515a.177.177 0 010 .239c-1.386 1.403-2.74 2.747-4.095 4.185a.163.163 0 01-.236 0z"/></g></g></svg>