<svg xmlns="http://www.w3.org/2000/svg" viewBox="0 0 75 105"><g fill="#2c5aa0"><path fill="#f55" d="M9.922 0C4.452 0 0 4.846 0 10.803c0 2.894 1.61 6.61 4.786 11.045a57.415 57.415 0 004.716 5.749.572.572 0 00.84 0 57.415 57.415 0 004.716-5.749c3.175-4.435 4.785-8.15 4.785-11.045C19.843 4.846 15.393 0 9.923 0z"/><path fill="none" stroke="#fff" stroke-width="1.166" d="M14.01 4.637l-2.67 4.22 2.775 3.403-1.698 3.447m4.476-11.162l-2.669 4.22 2.774 3.403-1.698 3.447"/><g fill="none" stroke="#fff" stroke-width="1.166"><path d="M5.698 4.639l2.669 4.22-2.774 3.403 1.698 3.446"/><path d="M3.086 4.545l2.669 4.22-2.774 3.403 1.697 3.447"/></g></g></svg>