<svg xmlns="http://www.w3.org/2000/svg" viewBox="0 0 75 105"><g fill="#2c5aa0"><path fill="#f55" d="M37.499 0C16.822 0-.001 18.317-.001 40.832c0 10.937 6.086 24.982 18.088 41.744a217.003 217.003 0 0017.825 21.727c.887.925 2.286.925 3.173 0a217.003 217.003 0 0017.826-21.727c12.001-16.762 18.086-30.807 18.086-41.744C74.997 18.317 58.176 0 37.5 0z"/><g transform="translate(-6.496 -4.089) scale(1.13242)"><circle cx="38.85" cy="35.386" r="20.297" fill="none" stroke="#fff" stroke-dashoffset="1.96" stroke-linecap="round" stroke-linejoin="round" stroke-width="4.415"/><path fill="#fff" stroke="#f55" stroke-width="2.267" d="M63.284 48.013h-9.44l9.184 9.367c-.659 2.524-2.671 4.61-5.16 5.269l-9.22-9.148v9.148H41.33V40.695h21.954z"/></g></g></svg>