<svg xmlns="http://www.w3.org/2000/svg" viewBox="0 0 75 105"><g fill="#2c5aa0"><path fill="#f55" d="M37.4986178-.00002128c-20.67699669 0-37.49888 18.31711079-37.49888 40.832 0 10.93714309 6.08534168 24.9825169 18.08689631 41.7440529 5.49848275 7.65951538 11.45302072 14.91753736 17.82516878 21.72720803.88758824.92431845 2.28604158.92431845 3.17362982 0 6.37214806-6.80967067 12.32668603-14.06769265 17.82516878-21.72720803 12.00155463-16.761536 18.08689631-30.80690981 18.08689631-41.7440529 0-22.51488921-16.82188331-40.832-37.49888-40.832Z"/><g fill="#fff"><path d="M61.630551 49.255375H13.366684a.46606696.53737608 0 1 1 0-1.074752h48.263867a.46606696.53737608 0 0 1 0 1.074752z"/><path d="M53.432121 34.358753h-5.521584c-.573274 0-.573274-2.39379 0-2.39379h5.521584a1.0380688 1.1968953 0 0 1 0 2.39379z"/><path d="M53.547941 38.508739h-2.594913a.51903442.59844766 0 0 1 0-1.196895h2.039136L51.874008 35.3777a.51903442.59844766 0 0 1 .863707-.663903l1.242083 2.148335a.5195275.59901619 0 0 1 .08718.331949v.716211a.51906037.59847758 0 0 1-.51904.598447zm-7.727226 5.162195h-4.72808a.51903442.59844766 0 0 1 0-1.196895h4.72808a1.5768707 1.8181349 0 0 0 1.575098-1.816089V25.095681a.5190345.59844775 0 0 1 1.038069 0V40.65795a2.6159646 3.0162121 0 0 1-2.613167 3.012984zm-6.828294.03477h-3.788598a.51903471.598448 0 0 1 0-1.196896h3.788598a.51903471.598448 0 0 1 0 1.196896z"/><path d="M26.405242 44.617941h2.076138v-3.455436l-2.076138-.0099zm0-5.859101 2.076138.0099v-1.740585l-2.076138-.01526zm21.210805-11.774018v-2.393791H28.383135a1.980093 2.2830509 0 0 0-1.977807 2.280415v7.747632l2.076138.01526v-7.649516z"/><path d="M29.504075 36.437258h-.0033l-9.383169-.06896a.51903734.59845102 0 0 1 .0033-1.196896h.0033l9.383169.06896a.51903734.59845102 0 0 1-.0033 1.196896zm5.948874 4.168092h-.0025l-12.261428-.06633a.51903598.59844946 0 0 1 .0025-1.196895h.0025l12.261428.06633a.51903598.59844946 0 0 1-.0025 1.196895z"/><path d="m25.654978 38.755249 1.038069.0051v-1.745373l-1.038069-.0075zm22.303458-6.056829a.51906037.59847758 0 0 0 .519034-.598448v-7.670824a.51905778.59847459 0 0 0-.519034-.598448H27.797952a2.1453587 2.4736026 0 0 0-2.143044 2.470934v8.311935l1.038069.0076v-8.319565a1.1062622 1.2755224 0 0 1 1.104975-1.274038h19.641449v7.072376a.51906037.59847758 0 0 0 .519035.598448zM30.837397 49.092905a2.8592698 3.2967434 0 1 1 2.86964-3.296722 2.8676133 3.3063635 0 0 1-2.86964 3.296722zm0-5.396549a1.8212113 2.0998601 0 1 0 1.831571 2.099827 1.8285271 2.1082952 0 0 0-1.831571-2.099827z"/><path d="M26.692977 44.472761v-3.318748l-1.038069-.0049v3.922128a.51906037.59847758 0 0 0 .519035.598447h2.318526a2.3172811 2.6718294 0 0 1 .297835-1.196895zm21.265459 0H32.884637a2.3172785 2.6718264 0 0 1 .297833 1.196895h18.153489a2.3172811 2.6718294 0 0 1 .297835-1.196895zm10.551757-6.201881-2.089316-1.502549-2.04928-4.252542c-.0076-.01577-.01596-.03156-.02484-.04646a1.7603831 2.029725 0 0 0-1.454968-.886274h-4.872275a.51903442.59844766 0 1 0 0 1.196895h4.872283a.72306166.83369145 0 0 1 .585689.344518l2.101228 4.360367a.51817023.59745124 0 0 0 .178924.217114l1.958797 1.408746v5.362067h-1.988323a2.3170631 2.6715781 0 0 1 .297848 1.196895h2.209509a.51906037.59847758 0 0 0 .519035-.598447v-6.292472a.51887092.59825915 0 0 0-.244309-.507858Z"/><path d="M53.680995 49.092905a2.8592698 3.2967434 0 1 1 2.86964-3.296722 2.8676133 3.3063635 0 0 1-2.86964 3.296722zm0-5.396549a1.8212113 2.0998601 0 1 0 1.831572 2.099827 1.8285271 2.1082952 0 0 0-1.831572-2.099827z"/></g></g></svg>
