<svg xmlns="http://www.w3.org/2000/svg" viewBox="0 0 75 105"><g fill="#2c5aa0"><path fill="#f55" d="M37.499 0C16.822 0-.001 18.317-.001 40.832c0 10.937 6.086 24.982 18.088 41.744a217 217 0 0 0 17.825 21.727c.887.925 2.286.925 3.173 0a217 217 0 0 0 17.826-21.727c12.001-16.762 18.086-30.807 18.086-41.744C74.997 18.317 58.176 0 37.5 0"/><g fill="#fff"><path fill-rule="evenodd" d="m38.36 37.451 12.473 1.778a.184.184 0 0 1 .17.177l.069 1.514a.19.19 0 0 1-.156.194l-12.193 1.899c-1.687.194-2.772-.427-3.333-1.32a2.8 2.8 0 0 1-.406-1.46c-.003-.51.13-1.012.385-1.455.513-.883 1.525-1.496 2.983-1.33z"/><path d="M23.228 56.186a20.74 20.74 0 0 1-6.122-10.939 21 21 0 0 1-.427-4.213 20.82 20.82 0 0 1 40.048-7.941 20.6 20.6 0 0 1-1.892 19.403 21.4 21.4 0 0 1-2.575 3.15.166.166 0 0 1-.235 0l-1.04-1.04a.2.2 0 0 1-.055-.038l-2.9-2.9a.166.166 0 0 1 0-.236l1.52-1.52a.166.166 0 0 1 .236 0l2.235 2.23a19 19 0 0 0 1.303-1.93 18 18 0 0 0 1.123-2.248 18 18 0 0 0 1.005-3.288 18 18 0 0 0 .346-3.268h-3.084a.17.17 0 0 1-.17-.17v-2.151a.173.173 0 0 1 .17-.16h2.97A18.2 18.2 0 0 0 54.1 33.3a18.6 18.6 0 0 0-3.326-4.85l-1.985 1.985a.17.17 0 0 1-.24 0l-1.52-1.521a.173.173 0 0 1 0-.236l1.915-1.916a18.4 18.4 0 0 0-5.037-2.88c-1.785-.685-2.973-1.084-4.948-1.16v2.72a.173.173 0 0 1-.17.17h-2.155a.17.17 0 0 1-.17-.17v-2.654c-1.975.187-4.591.693-6.334 1.455a18.3 18.3 0 0 0-4.885 3.15l1.988 1.989a.173.173 0 0 1 0 .235l-1.52 1.521a.17.17 0 0 1-.24 0l-1.964-1.964a18.2 18.2 0 0 0-4.307 10.772h3.056a.166.166 0 0 1 .17.17v2.155a.166.166 0 0 1-.17.166h-3.039a18.5 18.5 0 0 0 .458 2.907 18 18 0 0 0 .987 2.956 19 19 0 0 0 1.234 2.367 18 18 0 0 0 1.448 2.02l2.453-2.454a.177.177 0 0 1 .24 0l1.52 1.515a.177.177 0 0 1 0 .239c-1.386 1.403-2.74 2.747-4.095 4.185a.163.163 0 0 1-.236 0z"/></g></g></svg>