<svg xmlns="http://www.w3.org/2000/svg" viewBox="0 0 75 105"><g fill="#2c5aa0"><path fill="#f55" d="M37.4986178-.00002128c-20.67699669 0-37.49888 18.31711079-37.49888 40.832 0 10.93714309 6.08534168 24.9825169 18.08689631 41.7440529 5.49848275 7.65951538 11.45302072 14.91753736 17.82516878 21.72720803.88758824.92431845 2.28604158.92431845 3.17362982 0 6.37214806-6.80967067 12.32668603-14.06769265 17.82516878-21.72720803 12.00155463-16.761536 18.08689631-30.80690981 18.08689631-41.7440529 0-22.51488921-16.82188331-40.832-37.49888-40.832Z"/><g fill="#fff"><path fill-rule="evenodd" d="m38.35923676 37.4514398 12.47362308 1.7774913c.0933661.00700948.16650935.08313808.16977987.17670965L51.0719376 40.9198c.00329165.09437612-.06305035.17692136-.15592029.19403414l-12.19296656 1.89876262c-1.687404.19403414-2.77191624-.42618212-3.33322928-1.3201251-.26653776-.43978046-.40679776-.94447676-.40539275-1.45872093-.003257-.51062786.1294783-1.01291848.38460338-1.45525603.5128045-.8835483 1.52455394-1.49683477 2.98327486-1.3305198z"/><path d="M23.22803864 56.1861273a20.74432816 20.74432816 0 0 1-6.12247-10.93867307 21.11507196 21.11507196 0 0 1-.42618212-4.21331269 20.82055586 20.82055586 0 0 1 40.04726022-7.94154002 20.60573235 20.60573235 0 0 1-1.89183283 19.40341229 21.37147421 21.37147421 0 0 1-2.5744172 3.14958983.16631497.16631497 0 0 1-.23561289 0l-1.03946859-1.0394686a.17670966.17670966 0 0 1-.05543832-.03811384l-2.90011737-2.90011737a.16631497.16631497 0 0 1 0-.23561288l1.52108904-1.52108903a.16631497.16631497 0 0 1 .23561288 0l2.23485746 2.23139257a19.0153454 19.0153454 0 0 0 1.30280064-1.92994668 18.36394509 18.36394509 0 0 0 1.12262607-2.24871705 17.88578954 17.88578954 0 0 0 1.00481964-3.28818426 18.10754284 18.10754284 0 0 0 .34648953-3.26739626h-3.08375682a.16977987.16977987 0 0 1-.16977986-.16977987v-2.15169999a.17324476.17324476 0 0 1 .16977986-.15938518h2.96941528a18.22881417 18.22881417 0 0 0-1.58345716-5.62698997 18.5753037 18.5753037 0 0 0-3.32629948-4.85085342l-1.98538501 1.98538501a.16977987.16977987 0 0 1-.23907778 0l-1.52108903-1.52108904a.17324476.17324476 0 0 1 0-.23561288l1.9160871-1.9160871a18.41591852 18.41591852 0 0 0-5.03795777-2.879328c-1.78442108-.68604926-2.97288017-1.08451222-4.94787049-1.16073992v2.71994281a.17324476.17324476 0 0 1-.16977987.16977987H36.6337189a.16977987.16977987 0 0 1-.16977987-.16977987v-2.6541098c-1.97499032.18710435-4.59098627.69297906-6.33382861 1.45525603a18.27039292 18.27039292 0 0 0-4.88550272 3.14958983l1.9888499 1.9888499a.17324476.17324476 0 0 1 0 .23561288l-1.52108903 1.52108904a.16977987.16977987 0 0 1-.23907778 0l-1.96459564-1.96459564a18.19763012 18.19763012 0 0 0-4.30686485 10.77235949h3.05603765a.16631497.16631497 0 0 1 .16977987.16977987v2.15516488a.16631497.16631497 0 0 1-.16977987.16631497h-3.03871318a18.49214622 18.49214622 0 0 0 .45736618 2.90704716 18.26692802 18.26692802 0 0 0 .98749516 2.9555543 18.67578567 18.67578567 0 0 0 1.23350273 2.3665235 18.15258648 18.15258648 0 0 0 1.44832624 2.02003395l2.45314587-2.45314587a.17670966.17670966 0 0 1 .23907777 0l1.52108904 1.51415925a.17670966.17670966 0 0 1 0 .23907777c-1.38595812 1.4032826-2.74073218 2.74766197-4.09550624 4.18559352a.16285008.16285008 0 0 1-.23561288 0z"/></g></g></svg>
