<svg xmlns="http://www.w3.org/2000/svg" viewBox="0 0 75 105"><g fill="#2c5aa0"><path fill="#f55" d="M37.4986178-.00002128c-20.67699669 0-37.49888 18.31711079-37.49888 40.832 0 10.93714309 6.08534168 24.9825169 18.08689631 41.7440529 5.49848275 7.65951538 11.45302072 14.91753736 17.82516878 21.72720803.88758824.92431845 2.28604158.92431845 3.17362982 0 6.37214806-6.80967067 12.32668603-14.06769265 17.82516878-21.72720803 12.00155463-16.761536 18.08689631-30.80690981 18.08689631-41.7440529 0-22.51488921-16.82188331-40.832-37.49888-40.832Z"/><g transform="translate(-6.4961777 -4.0886317) scale(1.13242)"><circle cx="38.850361" cy="35.385933" r="20.29735" fill="none" stroke="#fff" stroke-dashoffset="1.96" stroke-linecap="round" stroke-linejoin="round" stroke-width="4.41534"/><path fill="#fff" stroke="#f55" stroke-width="2.26724" d="M63.284034 48.012571h-9.44023l9.184101 9.36705c-.65862 2.524718-2.671073 4.610349-5.159195 5.268971l-9.220693-9.147513v9.14751h-7.318009V40.694563h21.954026z"/></g></g></svg>
