<svg xmlns="http://www.w3.org/2000/svg" viewBox="0 0 75 105"><g fill="#2c5aa0"><path fill="#f55" d="M37.499 0C16.822 0-.001 18.317-.001 40.832c0 10.937 6.086 24.982 18.088 41.744a217.003 217.003 0 0017.825 21.727c.887.925 2.286.925 3.173 0a217.003 217.003 0 0017.826-21.727c12.001-16.762 18.086-30.807 18.086-41.744C74.997 18.317 58.176 0 37.5 0z"/><path fill="#fff" stroke="#f55" stroke-width="2.567" d="M65.168 50.282h-10.69l10.4 10.607c-.746 2.86-3.025 5.221-5.842 5.967L48.594 56.497v10.359h-8.287V41.995h24.86z"/><path fill="none" stroke="#fff" stroke-width="5.549" d="M44.058 57.311l-23.291 5.296 4.566-17.085-12.504-5.71 9.108-18.717 7.621 4.033 6.027-13.934 6.78 10.544 11.402-.449-.774 10.499 8.31 2.635-8.57 11.177"/></g></svg>