<svg xmlns="http://www.w3.org/2000/svg" xml:space="preserve" viewBox="0 0 512 512"><path fill="#fff" d="M457.56 234.684c-9.926-94.877-85.315-170.318-180.244-180.245V21.316C277.316 9.456 267.756 0 256 0c-11.86 0-21.316 9.56-21.316 21.316v33.123C139.807 64.366 64.366 139.755 54.44 234.684H21.316A21.238 21.238 0 000 256c0 11.86 9.56 21.316 21.316 21.316h33.123c9.927 94.877 85.316 170.318 180.245 180.245v33.123c0 11.86 9.56 21.316 21.316 21.316 11.86 0 21.316-9.56 21.316-21.316v-33.123c94.877-9.927 170.318-85.316 180.245-180.245h33.123c11.86 0 21.316-9.56 21.316-21.316 0-11.86-9.56-21.316-21.316-21.316zM256 416.026c-88.346 0-160.026-71.628-160.026-160.026 0-88.346 71.628-160.026 160.026-160.026 88.398 0 160.026 71.68 160.026 160.026S344.346 416.026 256 416.026zm5.329-58.67c50.625 0 95.974-45.35 95.974-95.975.052-61.335-45.349-106.736-95.974-106.736-61.283 0-106.684 45.4-106.684 106.684 0 50.625 45.4 96.026 106.684 96.026z"/></svg>