<svg xmlns="http://www.w3.org/2000/svg" viewBox="0 0 75 105"><g fill="#2c5aa0"><path fill="#f55" d="M37.499 0C16.822 0-.001 18.317-.001 40.832c0 10.937 6.086 24.982 18.088 41.744a217.003 217.003 0 0017.825 21.727c.887.925 2.286.925 3.173 0a217.003 217.003 0 0017.826-21.727c12.001-16.762 18.086-30.807 18.086-41.744C74.997 18.317 58.176 0 37.5 0z"/><path fill="#fff" stroke="#f55" stroke-width="2.567" d="M40.566 57.95h10.69l-10.4-10.608c.746-2.859 3.025-5.22 5.842-5.966L57.14 51.735v-10.36h8.287v24.862H40.566z"/></g><path fill="none" stroke="#fff" stroke-width="5.549" d="M44.058 54.583L20.767 59.88l4.566-17.085-12.504-5.71 9.108-18.717 7.621 4.033 6.027-13.934 6.78 10.544 11.402-.449-.774 10.498 8.31 2.635-8.57 11.178"/></svg>