<svg xmlns="http://www.w3.org/2000/svg" xmlns:xlink="http://www.w3.org/1999/xlink" xml:space="preserve" viewBox="0 0 74.099 105.9"><path fill="none" d="M-120.668 11.462h228v112.7h-228z"/><g fill="#d40000" transform="translate(-.001 28.7)"><defs><path id="a" d="M0-28.7h74.1V77.2H0z"/></defs><clipPath id="b"><use xlink:href="#a" width="100%" height="100%" overflow="visible"/></clipPath><g clip-path="url(#b)"><path d="M37.101-28.7c-20.5 0-37.1 16.6-37.1 37.1v.1c0 27.8 37.1 68.9 37.1 68.9s37.1-41 37.1-68.9c0-20.6-16.6-37.2-37.1-37.2m0 50.3c-7.3 0-13.2-5.9-13.2-13.2 0-7.3 5.9-13.2 13.2-13.2 7.3 0 13.2 5.9 13.2 13.2 0 7.3-5.9 13.2-13.2 13.2"/></g></g></svg>