<svg xmlns="http://www.w3.org/2000/svg" viewBox="0 0 19.938 18.708"><path fill="#3c3c3b" d="M19.938 7.116v1.413l-.001 5.277c0 .113-.04.192-.104.23l-8.03 4.635-.021.013L.132 4.66 8.157.024c.064-.037.153-.032.25.025L19.582 6.5c.196.113.356.39.356.616z"/><path fill="#1d1d1b" d="M.355 12.208A.787.787 0 010 11.592v-6.69c0-.226.16-.318.355-.205l11.176 6.452a.79.79 0 01.355.615v6.69c0 .114-.04.193-.104.23-.065.038-.154.032-.251-.024z"/><path fill="#575756" d="M2.674 6.188L.355 4.85c-.123-.071-.223-.014-.223.129v6.69c0 .142.1.315.223.386l2.319 1.339z"/><path fill="#3c3c3b" d="M11.53 11.302L2.46 6.064v1.804l9.295 5.366v-1.546c0-.142-.1-.315-.223-.386z"/><path fill="#1d1d1b" d="M11.53 18.507l-9.07-5.238V7.747l9.295 5.366v5.265c0 .142-.1.2-.223.129z"/><path fill="#95c11f" d="M3.555 8.472l-.487-.281v.12l.487.282z"/><path fill="#3c3c3b" d="M4.006 13.998l-1.39-.803V8.052l1.39.802z"/><path fill="#fff" d="M3.634 13.053c0 .206-.145.29-.323.187a.713.713 0 01-.322-.559c0-.205.144-.289.322-.186a.713.713 0 01.323.558z"/><path fill="#1d1d1b" d="M2.909 12.078l-.143-.083v-.916l.143.082zm.237.137l-.144-.083v-.917l.144.083zm.237.137l-.143-.083v-.917l.143.083zm.237.137l-.143-.083v-.917l.143.083zm.237.136l-.143-.082v-.917l.143.083zm-.711-1.492l-.38-.22v-.165l.38.22z"/><path fill="#fff" d="M3.383 11.27l-.143-.083v-.166l.143.083z"/><path fill="#95c11f" d="M3.62 11.406l-.143-.082v-.166l.143.083z"/><path fill="#e94e1b" d="M3.857 11.543l-.143-.083v-.165l.143.083z"/><path fill="#1d1d1b" d="M3.785 8.879l-.947-.547c-.04-.023-.072-.004-.072.042v2.098a.16.16 0 00.072.126l.947.547c.04.023.072.004.072-.042V9.004a.162.162 0 00-.072-.125z"/><path fill="#878787" d="M3.477 12.963c0 .106-.074.15-.166.096a.367.367 0 01-.166-.288c0-.106.074-.149.166-.096a.367.367 0 01.166.288z"/><path fill="#1d1d1b" d="M3.104 8.212l-.488-.281v.12l.488.282zm.903.521l-.488-.281v.12l.488.282z"/><path fill="#95c11f" d="M5.073 9.349l-.488-.281v.12l.488.282z"/><path fill="#3c3c3b" d="M5.524 14.874l-1.39-.803V8.928l1.39.802z"/><path fill="#fff" d="M5.152 13.93c0 .205-.145.289-.323.186a.713.713 0 01-.322-.558c0-.206.144-.29.322-.187a.712.712 0 01.323.559z"/><path fill="#1d1d1b" d="M4.427 12.954l-.143-.082v-.917l.143.083zm.237.137l-.143-.082v-.917l.143.083zm.236.137l-.142-.083v-.916l.143.082zm.238.137l-.143-.083v-.916l.143.082zm.237.137l-.143-.083v-.917l.143.083zm-.711-1.492l-.38-.22v-.166l.38.22z"/><path fill="#fff" d="M4.9 12.146l-.142-.083v-.165l.143.082z"/><path fill="#95c11f" d="M5.138 12.283l-.143-.083v-.165l.143.082z"/><path fill="#e94e1b" d="M5.375 12.42l-.143-.083v-.166l.143.083z"/><path fill="#1d1d1b" d="M5.303 9.755l-.947-.546c-.04-.023-.072-.005-.072.042v2.098a.16.16 0 00.072.126l.947.546c.04.024.072.005.072-.041v-2.1a.161.161 0 00-.072-.126z"/><path fill="#878787" d="M4.996 13.84c0 .106-.075.149-.167.096a.367.367 0 01-.166-.288c0-.106.075-.15.166-.096a.369.369 0 01.167.288z"/><path fill="#1d1d1b" d="M4.622 9.088l-.488-.281v.12l.488.282zm.902.522l-.487-.282v.12l.487.282z"/><path fill="#95c11f" d="M6.591 10.225l-.488-.281v.12l.488.282z"/><path fill="#3c3c3b" d="M7.042 15.75l-1.39-.802V9.804l1.39.803z"/><path fill="#fff" d="M6.67 14.806c0 .206-.145.29-.323.187a.713.713 0 01-.322-.559c0-.205.144-.289.322-.186a.712.712 0 01.323.558z"/><path fill="#1d1d1b" d="M5.945 13.83l-.143-.082v-.917l.143.083zm.237.138l-.143-.083v-.917l.143.083zm.237.136l-.143-.082v-.917l.143.083zm.237.137l-.143-.082v-.917l.143.083zm.237.137l-.143-.083v-.916l.143.082zm-.711-1.493l-.38-.22V12.5l.38.22z"/><path fill="#fff" d="M6.419 13.022l-.143-.083v-.165l.143.083z"/><path fill="#95c11f" d="M6.656 13.16l-.143-.083v-.166l.143.083z"/><path fill="#e94e1b" d="M6.893 13.296l-.143-.083v-.165l.143.082z"/><path fill="#1d1d1b" d="M6.82 10.631l-.946-.546c-.04-.023-.072-.004-.072.042v2.099a.16.16 0 00.072.126l.946.546c.04.023.073.004.073-.042v-2.098a.16.16 0 00-.073-.127z"/><path fill="#878787" d="M6.514 14.716c0 .106-.075.15-.167.096a.367.367 0 01-.166-.288c0-.106.075-.149.166-.096a.367.367 0 01.167.288z"/><path fill="#1d1d1b" d="M6.14 9.965l-.488-.282v.121l.488.282zm.902.521l-.487-.282v.121l.487.282z"/><path fill="#95c11f" d="M8.109 11.102l-.487-.282v.121l.487.282z"/><path fill="#3c3c3b" d="M8.56 16.627l-1.39-.803V10.68l1.39.803z"/><path fill="#fff" d="M8.188 15.683c0 .205-.145.289-.323.186a.713.713 0 01-.322-.559c0-.205.144-.289.322-.186a.713.713 0 01.323.559z"/><path fill="#1d1d1b" d="M7.463 14.707l-.144-.083v-.916l.144.082zm.237.137l-.144-.083v-.916l.144.082zm.237.136l-.143-.082v-.917l.143.083zm.237.138l-.143-.083v-.917l.143.083zm.236.137l-.142-.083v-.917l.143.083zm-.71-1.493l-.38-.22v-.165l.38.22z"/><path fill="#fff" d="M7.937 13.899l-.143-.083v-.166l.143.083z"/><path fill="#95c11f" d="M8.174 14.036l-.143-.083v-.166l.143.083z"/><path fill="#e94e1b" d="M8.411 14.172l-.143-.082v-.166l.143.083z"/><path fill="#1d1d1b" d="M8.338 11.508l-.946-.547c-.04-.023-.072-.004-.072.042v2.099a.16.16 0 00.072.126l.947.546c.04.023.072.004.072-.042v-2.099a.161.161 0 00-.073-.125z"/><path fill="#878787" d="M8.031 15.592c0 .107-.074.15-.166.096a.367.367 0 01-.166-.287c0-.106.074-.15.166-.096a.367.367 0 01.166.287z"/><path fill="#1d1d1b" d="M7.658 10.841l-.488-.281v.12l.488.282zm.902.521l-.487-.281v.12l.487.282z"/><path fill="#95c11f" d="M9.627 11.978l-.487-.282v.122l.487.28z"/><path fill="#3c3c3b" d="M10.078 17.503l-1.39-.802v-5.144l1.39.802z"/><path fill="#fff" d="M9.706 16.559c0 .206-.145.289-.323.186a.713.713 0 01-.322-.558c0-.206.144-.29.322-.187a.713.713 0 01.323.559z"/><path fill="#1d1d1b" d="M8.98 15.583l-.143-.082v-.917l.144.083zm.238.137l-.144-.082v-.917l.144.083zm.237.137l-.144-.083v-.916l.144.082zm.237.137l-.143-.083v-.916l.143.082zm.237.136l-.143-.082v-.916l.143.082zm-.711-1.492l-.38-.22v-.165l.38.22z"/><path fill="#fff" d="M9.455 14.775l-.144-.083v-.165l.144.083z"/><path fill="#95c11f" d="M9.692 14.912l-.143-.083v-.165l.143.082z"/><path fill="#e94e1b" d="M9.929 15.049l-.143-.083V14.8l.143.082z"/><path fill="#1d1d1b" d="M9.856 12.384l-.946-.546c-.04-.023-.073-.005-.073.042v2.098a.16.16 0 00.073.126l.946.547c.04.023.073.004.073-.043V12.51a.16.16 0 00-.073-.126z"/><path fill="#878787" d="M9.55 16.469c0 .106-.075.149-.167.096a.367.367 0 01-.166-.288c0-.106.074-.15.166-.096a.367.367 0 01.166.288z"/><path fill="#1d1d1b" d="M9.176 11.717l-.488-.28v.12l.488.282zm.902.522l-.487-.282v.121l.487.281z"/><path fill="#95c11f" d="M11.145 12.854l-.488-.281v.12l.488.282z"/><path fill="#3c3c3b" d="M11.596 18.38l-1.39-.803v-5.144l1.39.803z"/><path fill="#fff" d="M11.224 17.435c0 .206-.145.29-.323.187a.713.713 0 01-.322-.559c0-.206.144-.289.322-.186a.713.713 0 01.323.558z"/><path fill="#1d1d1b" d="M10.499 16.46l-.144-.083v-.917l.144.083zm.237.137l-.144-.083v-.917l.144.083zm.237.137l-.144-.083v-.917l.144.083zm.237.136l-.144-.082v-.917l.144.083zm.237.137l-.143-.082v-.917l.143.083zm-.711-1.492l-.38-.22v-.166l.38.22z"/><path fill="#fff" d="M10.973 15.651l-.144-.082v-.166l.144.083z"/><path fill="#95c11f" d="M11.21 15.788l-.144-.083v-.165l.144.083z"/><path fill="#e94e1b" d="M11.447 15.925l-.143-.083v-.165l.143.083z"/><path fill="#1d1d1b" d="M11.374 13.26l-.946-.546c-.04-.023-.073-.004-.073.042v2.099a.16.16 0 00.073.125l.946.547c.04.023.073.004.073-.042v-2.099a.16.16 0 00-.073-.126z"/><path fill="#878787" d="M11.067 17.345c0 .106-.074.149-.166.096a.367.367 0 01-.166-.288c0-.106.074-.149.166-.096a.368.368 0 01.166.288z"/><path fill="#1d1d1b" d="M10.694 12.594l-.488-.282v.121l.488.282zm.902.521l-.487-.282v.122l.487.28z"/><path fill="#36a9e1" d="M5.652 9.091L3.121 7.63v-.688l2.531 1.462z"/><path fill="#575756" d="M11.344 12.377l-.206-.119v-.687l.206.119zm-.412-.237l-.206-.12v-.687l.206.12z"/><path fill="#95c11f" d="M1.567 7.353l-.488-.28v.06l.488.28z"/><path fill="#1d1d1b" d="M1.116 7.093l-.488-.282v.06l.488.282zm.902.521l-.487-.282v.061l.487.282z"/><path fill="#95c11f" d="M1.567 7.598l-.488-.28v.06l.488.28z"/><path fill="#1d1d1b" d="M1.116 7.338l-.488-.282v.06l.488.282zm.902.521l-.487-.282v.061l.487.282z"/><path fill="#95c11f" d="M1.567 7.843l-.488-.28v.06l.488.28z"/><path fill="#1d1d1b" d="M1.116 7.583l-.488-.282v.06l.488.282zm.902.521l-.487-.282v.061l.487.282z"/><path fill="#3c3c3b" d="M1.832 11.456l-.971-.56a.196.196 0 01-.09-.154v-.388c0-.057.04-.08.09-.051l.971.56c.05.029.09.098.09.155v.387c0 .057-.04.08-.09.051z"/><path fill="#1d1d1b" d="M1.832 12.35l-.971-.56a.196.196 0 01-.09-.154v-.388c0-.056.04-.08.09-.051l.971.56a.2.2 0 01.09.155v.387c0 .057-.04.08-.09.051z"/><path fill="#fff" d="M2.194 6.637l-1.72-.993v-.23l1.72.993z"/><path fill="#1d1d1b" d="M19.938 8.53l-.001 5.276c0 .113-.04.192-.104.23l-8.03 4.635c.053-.041.074-.118.083-.206v-5.287zM2.6 4.484l3.505 2.024a.83.83 0 00.752 0l1.592-.92c.208-.12.208-.314 0-.433L4.943 3.13a.831.831 0 00-.751 0L2.6 4.05c-.208.12-.208.314 0 .434zm3.326-1.949l3.506 2.024a.83.83 0 00.752 0l1.592-.92c.208-.12.208-.314 0-.434L8.27 1.181a.831.831 0 00-.752 0l-1.592.92c-.208.12-.208.314 0 .434zm2.28 5.176l3.506 2.024a.83.83 0 00.752 0l1.592-.919c.207-.12.207-.314 0-.434L10.55 6.358a.831.831 0 00-.752 0l-1.592.92c-.208.119-.208.313 0 .433zm3.327-1.949l3.505 2.024a.83.83 0 00.752 0l1.592-.92c.208-.12.208-.314 0-.433l-3.506-2.025a.831.831 0 00-.752 0l-1.591.92c-.208.12-.208.314 0 .434z" opacity=".5"/></svg>