<svg xmlns="http://www.w3.org/2000/svg" xml:space="preserve" viewBox="0 0 500 448.572"><path fill="#afdde9" d="M83.765 8.695c-41.81 3.3-74.817 39.61-71.517 81.42 2.2 57.213 75.918 130.93 82.52 130.93 6.601 0 70.416-85.82 68.216-136.432-1.1-41.81-36.309-75.918-79.219-75.918zm4.401 105.625c-16.504 1.1-30.807-12.103-31.907-28.607-1.1-16.504 12.103-30.807 28.606-31.908 16.504-1.1 30.808 12.103 31.908 28.607 0 16.504-12.103 30.808-28.607 31.908z"/><path fill="#6ba6cb" stroke="#6ba6cb" stroke-miterlimit="10" stroke-width="10.788" d="M85.966 221.045S-22.96 91.215 39.755 24.098c0 0-102.324 42.91 46.21 196.947z"/><path fill="none" stroke="#105da6" stroke-miterlimit="10" stroke-width="10.788" d="M85.966 5.394c-44.01 0-80.32 36.309-80.32 80.319 0 58.314 75.919 136.432 82.52 136.432 6.602 0 78.119-84.72 78.119-136.432-1.1-44.01-36.309-80.319-80.32-80.319zm0 107.826c-16.504 0-29.707-14.304-29.707-31.908 0-16.504 14.303-29.707 31.907-29.707 16.504 0 29.707 14.303 29.707 30.807-1.1 16.504-15.403 30.808-31.907 30.808 0 0-1.1 0 0 0z"/><path fill="#afdde9" d="M406.141 197.94c-46.21 3.3-81.419 41.81-78.118 88.02 2.2 61.615 82.52 141.934 89.121 140.834 6.602-1.1 75.918-93.522 73.717-147.435-1.1-45.11-38.509-82.52-84.72-81.42zm3.301 113.326c-17.604 1.1-33.008-13.203-34.108-30.807-1.1-17.604 13.203-33.008 30.807-34.108 17.605-1.1 33.008 13.203 34.108 30.807 1.1 18.705-13.203 33.008-30.807 34.108z"/><path fill="#6ba6cb" stroke="#6ba6cb" stroke-miterlimit="10" stroke-width="11.676" d="M407.242 427.894S289.514 288.16 357.73 214.444c0 0-110.026 46.21 49.512 213.45z"/><path fill="none" stroke="#105da6" stroke-miterlimit="10" stroke-width="11.676" d="M407.242 194.639c-47.312 0-86.92 38.509-86.92 86.92 0 62.715 81.418 147.435 89.12 147.435 7.702 0 84.72-91.321 84.72-147.435 0-48.411-38.509-86.92-86.92-86.92zm0 115.527c-18.705-1.1-33.008-15.404-31.908-34.108 1.1-18.704 15.404-33.008 34.108-31.908 17.604 1.1 31.908 15.404 31.908 33.008 0 18.705-15.404 33.008-34.108 33.008z"/><path d="M85.966 236.449s4.4 0 12.103-1.1"/><path fill="none" stroke="#105da6" stroke-dasharray="23.80302484 23.80302484" stroke-miterlimit="10" stroke-width="5.501" d="M121.174 234.248c67.116-3.3 200.247-1.1 163.939 68.216-45.11 86.92-189.245-63.815-268.464 49.512-20.905 29.707-9.902 108.926 355.384 91.322 7.702 0 15.404-1.1 22.006-1.1"/><path d="M405.041 442.197c4.401 0 7.702 0 12.103-1.1"/></svg>