<svg xmlns="http://www.w3.org/2000/svg" xmlns:xlink="http://www.w3.org/1999/xlink" fill="none" viewBox="0 0 240 155"><defs><path id="b" fill="#fff" d="M162.257 118.462h5.044c1.337 0 2.421 1.084 2.421 2.421v5.043c0 1.337-1.084 2.421-2.421 2.421h-5.044c-1.337 0-2.421-1.084-2.421-2.421v-5.043c0-1.337 1.084-2.421 2.421-2.421Z"/><path id="e" fill="#fff" d="M174.465 114.169c0-1.335 1.031-2.442 2.362-2.537l25.292-1.499c3.786-.225 6.981 2.785 6.981 6.579h-32.092c-1.404 0-2.543-1.139-2.543-2.543Z"/><path id="g" fill="#fff" d="M219.879 136.632v-4.578h-30.66c-2.529 0-4.578 2.05-4.578 4.578h35.238Z"/></defs><path stroke="#C6DFEA" stroke-linecap="round" stroke-miterlimit="10" stroke-width="1.6" d="M10.1826 142.758h73.3179M119 150.47h91.675m6.886 0h6.121M1 142.758h3.06061"/><path fill="#F0FAFF" d="M96 46.9999h120v6H96z"/><path fill="#fff" d="m89 123 59.5-8L217 88.5V128H89v-5Z"/><path fill="#fff" d="M95 52h121.5v61.243L209 115l-1 2h-32l-2.5-1.5-2 1.5h-19l-5.5-2.5-2 5h-9.5l-7 3.5H95V52ZM60.5 63h26l2 4 .5 60.5-4 4-67 .5-.5-24.5L20 102l14.5-8.5L51 68l9.5-5Z"/><path stroke="#E2EFF4" stroke-linecap="round" stroke-linejoin="round" stroke-width="2" d="M217 81.3865c0-9.1191-7.388-16.5112-16.502-16.5112-5.929 0-11.124 3.1302-14.034 7.8269-1.936-11.1898-11.679-19.7023-23.417-19.7023-13.13 0-23.772 10.6488-23.772 23.7863 0 .9591.062 1.9028.172 2.8312-1.492-.709-3.155-1.117-4.917-1.117-6.348 0-11.493 5.1482-11.493 11.4995H96"/><path stroke="#004165" stroke-linecap="round" stroke-width="1.6" d="M217 109V48.9999c0-1.1045-.895-2-2-2H99c-2.2091 0-4 1.7909-4 4V122.5m28 5.5H89v-5h35.927"/><path fill="#004165" stroke="#004165" stroke-linecap="round" stroke-linejoin="round" stroke-miterlimit="10" stroke-width="1.6" d="M28.1094 128.001c0 8.38 7.1627 15.167 15.9871 15.167 8.8332 0 15.9872-6.787 15.9872-15.167 0-8.38-7.1628-15.167-15.9872-15.167-8.8331 0-15.9871 6.787-15.9871 15.167Z"/><path fill="#fff" d="M36.3066 128.001c0 4.304 3.4844 7.789 7.7887 7.789 4.3042 0 7.7886-3.485 7.7886-7.789s-3.4844-7.789-7.7886-7.789c-4.2954 0-7.7887 3.485-7.7887 7.789Z"/><path stroke="#004165" stroke-linecap="round" stroke-linejoin="round" stroke-width="1.6" d="M17.5154 119.236v-10.673c-.3519-1.905.5278-6.496 6.8616-9.6146 7.9173-3.8978 9.7647-3.638 10.8203-5.7168.8445-1.6631 9.6766-15.7647 13.9871-22.6076 1.3196-2.2521 6.0699-6.9642 14.515-7.7958h20.3209c1.5835-.0866 4.7504.8316 4.7504 5.1972v57.4286c.0879 2.079-.7917 6.237-5.0143 6.237h-19.804"/><path stroke="#004165" stroke-linecap="round" stroke-linejoin="round" stroke-width="1.6" d="M47.623 98.2788v8.5162c7.1479 0 17.0948 6.887 17.86 17.436l7.998-.5c.8617 0 2.2518-.708 2.2518-3.811V85.9999"/><path stroke="#FDC82F" stroke-linecap="round" stroke-linejoin="round" stroke-width="1.6" d="M64.3438 100.338h5.7389"/><path fill="#fff" d="M24.9302 119.393H11.7119v9.629c0 3.244 3.2382 4.224 4.8573 4.308h7.4428s-2.1424-7.406.9182-13.937Z"/><path fill="#004165" d="m24.9302 119.393.7244.339c.1161-.248.0975-.538-.0493-.769-.1468-.23-.4014-.37-.6751-.37v.8Zm-.9182 13.937v.8c.2515 0 .4884-.118.6395-.319.1511-.201.1989-.462.129-.703l-.7685.222Zm-7.4428 0-.0417.799.0208.001h.0209v-.8Zm-4.8573-13.937v-.8c-.4418 0-.8.358-.8.8h.8Zm.8096.8h12.4087v-1.6H12.5215v1.6Zm11.6843-1.14c-1.6073 3.43-1.8383 7.062-1.6811 9.804.0789 1.375.2564 2.541.4148 3.365.0792.412.1539.74.2093.967.0278.114.0507.202.0671.263.0082.031.0148.055.0194.072.0024.008.0043.015.0056.019.0007.003.0013.005.0017.006.0002.001.0004.002.0006.002.0001.001.0001.001.0002.001s.0001.001.7686-.222c.7685-.222.7686-.222.7686-.222h.0001c0 .001 0 .001 0 0-.0001 0-.0003-.001-.0006-.002-.0007-.002-.0019-.006-.0035-.012-.0032-.012-.0083-.03-.0151-.055-.0135-.051-.0335-.128-.0584-.23-.0497-.203-.1186-.505-.1924-.889-.1477-.769-.3145-1.863-.3886-3.155-.1488-2.595.0793-5.932 1.5325-9.033l-1.4488-.679Zm-.1938 13.477h-7.4428v1.6h7.4428v-1.6Zm-7.4011.001c-.7066-.037-1.7745-.275-2.64-.84-.8316-.543-1.459-1.368-1.459-2.669h-1.6c0 1.943.9917 3.23 2.184 4.009 1.1584.756 2.5191 1.051 3.4316 1.098l.0834-1.598Zm-4.099-3.509v-9.629h-1.6v9.629h1.6Zm-.8-8.829h.8096v-1.6h-.8096v1.6Z"/><path fill="#E2EFF4" stroke="#004165" stroke-width="1.6" d="M76 86.5888c0 5.9289-4.7338 7.4111-7.1007 7.4111H34l15-23h22.7922c3.3662 0 4.2078 2.0445 4.2078 3.0667v12.5222Z"/><path fill="#fff" stroke="#004165" stroke-width="1.6" d="M46.1445 94.7969c0 3.1695 2.9365 5.7391 6.5589 5.7391V89.0579c-3.6224 0-6.5589 2.5694-6.5589 5.739Z"/><path stroke="#004165" stroke-width="1.6" d="M95 51.9999h122"/><path stroke="#BFDEEE" stroke-linecap="round" stroke-linejoin="round" stroke-width="1.6" d="M77.9088 14.0851C77.9088 11.2769 75.4666 9 72.4552 9 69.443 9 67 11.2769 67 14.0851"/><path stroke="#BFDEEE" stroke-linecap="round" stroke-linejoin="round" stroke-width="1.6" d="M88.817 14.0851C88.817 11.2769 86.3748 9 83.3634 9c-3.013 0-5.4552 2.2769-5.4552 5.0851m15.2331 9.6539c0-1.8177-1.5802-3.2906-3.5301-3.2906s-3.5301 1.4729-3.5301 3.2906"/><path stroke="#BFDEEE" stroke-linecap="round" stroke-linejoin="round" stroke-width="1.6" d="M100.201 23.739c0-1.8177-1.5804-3.2906-3.5302-3.2906-1.9499 0-3.5302 1.4729-3.5302 3.2906"/><mask id="a" width="9" height="9" x="179" y="118" maskUnits="userSpaceOnUse" style="mask-type:alpha"><path fill="#fff" d="M181.334 118.462h3.941c1.044 0 1.891.847 1.891 1.891v3.941c0 1.044-.847 1.891-1.891 1.891h-3.941c-1.044 0-1.891-.847-1.891-1.891v-3.941c0-1.044.847-1.891 1.891-1.891Z"/></mask><g mask="url(#a)"><path fill="#F0FAFF" d="M181.334 118.462h3.941c1.044 0 1.891.847 1.891 1.891v3.941c0 1.044-.847 1.891-1.891 1.891h-3.941c-1.044 0-1.891-.847-1.891-1.891v-3.941c0-1.044.847-1.891 1.891-1.891Z"/><path fill="#004165" fill-rule="evenodd" d="M187.488 123.54h-8.366v2.966h8.366v-2.966Z" clip-rule="evenodd" opacity=".2"/></g><path stroke="#004165" stroke-linecap="round" stroke-linejoin="round" stroke-width="1.6" d="M181.334 118.462h3.941c1.044 0 1.891.847 1.891 1.891v3.941c0 1.044-.847 1.891-1.891 1.891h-3.941c-1.044 0-1.891-.847-1.891-1.891v-3.941c0-1.044.847-1.891 1.891-1.891Z" clip-rule="evenodd"/><mask id="c" width="11" height="11" x="159" y="118" maskUnits="userSpaceOnUse" style="mask-type:alpha"><use xlink:href="#b"/></mask><g mask="url(#c)"><use xlink:href="#b"/><path fill="#004165" fill-rule="evenodd" d="M170.176 125.808h-10.812v2.848h10.812v-2.848Z" clip-rule="evenodd" opacity=".15"/></g><path stroke="#004165" stroke-linecap="round" stroke-linejoin="round" stroke-width="1.6" d="M162.402 118.462h5.044c1.337 0 2.421 1.084 2.421 2.421v5.043c0 1.337-1.084 2.421-2.421 2.421h-5.044c-1.336 0-2.42-1.084-2.42-2.421v-5.043c0-1.337 1.084-2.421 2.42-2.421Z" clip-rule="evenodd"/><path stroke="#004165" stroke-linecap="round" stroke-linejoin="round" stroke-width="1.6" d="M167.396 123.25h-4.943m4.943 2.545h-4.943m4.943-5.09h-4.943"/><path fill="#004165" fill-rule="evenodd" d="M216.205 136.07c0 8.019-6.5 14.519-14.519 14.519s-14.519-6.5-14.519-14.519 6.5-14.519 14.519-14.519 14.519 6.5 14.519 14.519Zm-61.166 0c0 8.019-6.5 14.519-14.519 14.519s-14.519-6.5-14.519-14.519 6.5-14.519 14.519-14.519 14.519 6.5 14.519 14.519Z" clip-rule="evenodd"/><path stroke="#004165" stroke-linecap="round" stroke-linejoin="round" stroke-width="1.6" d="M129.089 123.567c3.019-2.786 7.049-4.487 11.475-4.487 9.358 0 16.946 7.606 16.946 16.99m27.185 0c0-6.634 3.789-12.38 9.314-15.178 2.289-1.159 4.877-1.812 7.618-1.812 6.428 0 12.02 3.595 14.887 8.891"/><path fill="#F2FAFD" fill-rule="evenodd" d="M150.096 136.07c0 5.289-4.288 9.577-9.577 9.577s-9.576-4.288-9.576-9.577 4.287-9.576 9.576-9.576c5.289 0 9.577 4.287 9.577 9.576Z" clip-rule="evenodd"/><path fill="#fff" fill-rule="evenodd" stroke="#004165" stroke-linecap="round" stroke-linejoin="round" stroke-width="1.6" d="M145.771 135.915c0 2.815-2.282 5.098-5.097 5.098-2.815 0-5.097-2.283-5.097-5.098 0-2.814 2.282-5.097 5.097-5.097 2.815 0 5.097 2.283 5.097 5.097Z" clip-rule="evenodd"/><path stroke="#004165" stroke-linecap="round" stroke-linejoin="round" stroke-width="1.6" d="M142.682 135.916c0 1.109-.899 2.008-2.008 2.008s-2.008-.899-2.008-2.008.899-2.008 2.008-2.008 2.008.899 2.008 2.008Z" clip-rule="evenodd"/><path fill="#F2FAFD" fill-rule="evenodd" d="M211.262 136.07c0 5.289-4.288 9.577-9.577 9.577s-9.576-4.288-9.576-9.577 4.287-9.576 9.576-9.576c5.289 0 9.577 4.287 9.577 9.576Z" clip-rule="evenodd"/><path fill="#fff" fill-rule="evenodd" d="M152.362 100.854h6.378c.515 0 .933-.415.933-.9272 0-.5118-.418-.9268-.933-.9268h-5.863" clip-rule="evenodd"/><path stroke="#004165" stroke-linecap="round" stroke-linejoin="round" stroke-width="1.6" d="M152.362 100.854h6.378c.515 0 .933-.415.933-.9272 0-.5118-.418-.9268-.933-.9268h-5.863"/><mask id="d" width="9" height="9" x="140" y="104" maskUnits="userSpaceOnUse" style="mask-type:alpha"><path fill="#fff" d="M144.872 112.229h-3.989v-7.977h3.989c2.203 0 3.988 1.785 3.988 3.988v.001c0 2.202-1.785 3.988-3.988 3.988Z"/></mask><g mask="url(#d)"><path fill="#BFDEEE" d="M144.872 112.229h-3.989v-7.977h3.989c2.203 0 3.988 1.785 3.988 3.988v.001c0 2.202-1.785 3.988-3.988 3.988Z"/><path fill="#004165" fill-rule="evenodd" d="M148.86 112.351h-8.34v-2.848h8.34v2.848Z" clip-rule="evenodd" opacity=".2"/></g><path stroke="#004165" stroke-linecap="round" stroke-linejoin="round" stroke-width="1.6" d="M144.845 112.283h-4.017v-8.031h4.017c2.218 0 4.015 1.798 4.015 4.015v.001c0 2.217-1.797 4.015-4.015 4.015Z" clip-rule="evenodd"/><path stroke="#004165" stroke-linecap="round" stroke-linejoin="round" stroke-width="1.6" d="M143.455 104.252v7.722"/><mask id="f" width="36" height="7" x="174" y="110" maskUnits="userSpaceOnUse" style="mask-type:alpha"><use xlink:href="#e"/></mask><g mask="url(#f)"><use xlink:href="#e"/><path fill="#004165" fill-rule="evenodd" d="M209.1 116.985h-34.908v-2.848H209.1v2.848Z" clip-rule="evenodd" opacity=".2"/></g><path stroke="#004165" stroke-linecap="round" stroke-linejoin="round" stroke-width="1.6" d="M174.501 114.414c0-1.313 1.03-2.403 2.36-2.497l25.265-1.475c3.783-.221 6.974 2.741 6.974 6.475h-32.059c-1.402 0-2.54-1.121-2.54-2.503Z" clip-rule="evenodd"/><path stroke="#004165" stroke-linecap="round" stroke-linejoin="round" stroke-width="1.6" d="m148.112 113.674 13.575 20.234c1.268 2.008 2.35 2.78 5.09 2.78h17.917m-8.305-9.942-10.857 3.764"/><path fill="#fff" fill-rule="evenodd" stroke="#004165" stroke-linecap="round" stroke-linejoin="round" stroke-width="1.6" d="M172.956 131.436c0 2.73 2.282 4.943 5.097 4.943 2.815 0 5.097-2.213 5.097-4.943 0-2.73-2.282-4.942-5.097-4.942-2.815 0-5.097 2.212-5.097 4.942Z" clip-rule="evenodd"/><path fill="#fff" fill-rule="evenodd" d="M176.045 131.282c0 1.109.898 2.008 2.008 2.008 1.109 0 2.008-.899 2.008-2.008s-.899-2.008-2.008-2.008c-1.11 0-2.008.899-2.008 2.008Z" clip-rule="evenodd"/><path stroke="#004165" stroke-linecap="round" stroke-linejoin="round" stroke-width="1.6" d="M176.045 131.282c0 1.109.898 2.008 2.008 2.008 1.109 0 2.008-.899 2.008-2.008s-.899-2.008-2.008-2.008c-1.11 0-2.008.899-2.008 2.008Z" clip-rule="evenodd"/><path fill="#fff" fill-rule="evenodd" stroke="#004165" stroke-linecap="round" stroke-linejoin="round" stroke-width="1.6" d="M163.38 132.981c0 1.365 1.106 2.471 2.471 2.471s2.471-1.106 2.471-2.471-1.106-2.471-2.471-2.471-2.471 1.106-2.471 2.471Z" clip-rule="evenodd"/><path fill="#fff" fill-rule="evenodd" d="M206.628 136.07c0 2.73-2.282 4.943-5.098 4.943-2.814 0-5.096-2.213-5.096-4.943" clip-rule="evenodd"/><path stroke="#004165" stroke-linecap="round" stroke-linejoin="round" stroke-width="1.6" d="M206.628 136.07c0 2.73-2.282 4.943-5.098 4.943-2.814 0-5.096-2.213-5.096-4.943"/><path stroke="#004165" stroke-linecap="round" stroke-linejoin="round" stroke-width="1.6" d="M203.539 135.916c0 1.109-.899 2.008-2.008 2.008s-2.008-.899-2.008-2.008.899-2.008 2.008-2.008 2.008.899 2.008 2.008Z" clip-rule="evenodd"/><mask id="h" width="36" height="5" x="184" y="132" maskUnits="userSpaceOnUse" style="mask-type:alpha"><use xlink:href="#g"/></mask><g mask="url(#h)"><use xlink:href="#g"/><path fill="#004165" fill-rule="evenodd" d="M219.912 136.632h-35.245v-1.866h35.245v1.866Z" clip-rule="evenodd" opacity=".2"/></g><mask id="i" width="25" height="11" x="149" y="106" maskUnits="userSpaceOnUse" style="mask-type:alpha"><path fill="#fff" d="M153.803 116.903c-2.559 0-4.634-2.074-4.634-4.634v-.384c0-2.771 2.247-5.017 5.018-5.017 0 0 14.251-1.516 19.232 5.825 1.214 1.789-.116 4.21-2.278 4.21h-17.338Z"/></mask><g mask="url(#i)"><path fill="#BFDEEE" d="M153.803 116.903c-2.559 0-4.634-2.074-4.634-4.634v-.384c0-2.771 2.247-5.017 5.018-5.017 0 0 14.251-1.516 19.232 5.825 1.214 1.789-.116 4.21-2.278 4.21h-17.338Z"/><path fill="#004165" fill-rule="evenodd" d="M173.7 117.001h-24.647v-2.849H173.7v2.849Z" clip-rule="evenodd" opacity=".2"/></g><path stroke="#004165" stroke-linecap="round" stroke-linejoin="round" stroke-width="1.6" d="M171.453 116.917h-17.34c-2.559 0-4.634-2.081-4.634-4.647v-.385c0-2.779 2.247-5.032 5.018-5.032 0 0 14.253-1.521 19.234 5.842 1.214 1.794-.116 4.222-2.278 4.222Z" clip-rule="evenodd"/><mask id="j" width="6" height="6" x="209" y="114" maskUnits="userSpaceOnUse" style="mask-type:alpha"><path fill="#fff" d="M211.656 114.137h2.585v5.169h-2.585c-1.427 0-2.584-1.157-2.584-2.584v-.001c0-1.427 1.157-2.584 2.584-2.584Z"/></mask><g mask="url(#j)"><path fill="#BFDEEE" d="M211.656 114.137h2.585v5.169h-2.585c-1.427 0-2.584-1.157-2.584-2.584v-.001c0-1.427 1.157-2.584 2.584-2.584Z"/><path fill="#004165" fill-rule="evenodd" d="M214.66 119.389h-5.56v-1.854h5.56v1.854Z" clip-rule="evenodd" opacity=".2"/></g><path stroke="#004165" stroke-linecap="round" stroke-linejoin="round" stroke-width="1.6" d="M211.725 114.137h2.626v5.252h-2.626c-1.45 0-2.626-1.176-2.626-2.626v-.001c0-1.449 1.176-2.625 2.626-2.625Z" clip-rule="evenodd"/><path stroke="#004165" stroke-linecap="round" stroke-linejoin="round" stroke-width="1.6" d="M212 114.137v5.252"/><path stroke="#004165" stroke-linecap="round" stroke-linejoin="round" stroke-width="1.6" d="M219.911 136.688v-4.634h-30.642c-2.527 0-4.574 2.075-4.574 4.634h35.216Z" clip-rule="evenodd"/><path stroke="#7A99AC" stroke-linecap="round" stroke-linejoin="round" stroke-width="1.6" d="M235.357 133.884h-9.267m6.178-2.78H223m-40.521-27.734h-9.268m6.178-2.781h-9.268"/></svg>
