<svg xmlns="http://www.w3.org/2000/svg" xmlns:xlink="http://www.w3.org/1999/xlink" fill="none" viewBox="0 0 240 155"><defs><path id="b" fill="#fff" d="M162.257 118.462h5.044a2.421 2.421 0 012.421 2.421v5.043a2.421 2.421 0 01-2.421 2.421h-5.044a2.421 2.421 0 01-2.421-2.421v-5.043a2.421 2.421 0 012.421-2.421z"/><path id="e" fill="#fff" d="M174.465 114.169a2.543 2.543 0 012.362-2.537l25.292-1.499a6.59 6.59 0 016.981 6.579h-32.092a2.544 2.544 0 01-2.543-2.543z"/><path id="g" fill="#fff" d="M219.879 136.632v-4.578h-30.66a4.578 4.578 0 00-4.578 4.578h35.238z"/></defs><path stroke="#C6DFEA" stroke-linecap="round" stroke-miterlimit="10" stroke-width="1.6" d="M10.183 142.758H83.5m35.5 7.712h91.675m6.886 0h6.121M1 142.758h3.06"/><path fill="#F0FAFF" d="M96 47h120v6H96z"/><path fill="#fff" d="M89 123l59.5-8L217 88.5V128H89v-5z"/><path fill="#fff" d="M95 52h121.5v61.243L209 115l-1 2h-32l-2.5-1.5-2 1.5h-19l-5.5-2.5-2 5h-9.5l-7 3.5H95V52zM60.5 63h26l2 4 .5 60.5-4 4-67 .5-.5-24.5L20 102l14.5-8.5L51 68l9.5-5z"/><path stroke="#E2EFF4" stroke-linecap="round" stroke-linejoin="round" stroke-width="2" d="M217 81.386c0-9.119-7.388-16.51-16.502-16.51-5.929 0-11.124 3.13-14.034 7.826C184.528 61.512 174.785 53 163.047 53c-13.13 0-23.772 10.649-23.772 23.786 0 .96.062 1.903.172 2.831a11.42 11.42 0 00-4.917-1.117c-6.348 0-11.493 5.149-11.493 11.5H96"/><path stroke="#004165" stroke-linecap="round" stroke-width="1.6" d="M217 109V49a2 2 0 00-2-2H99a4 4 0 00-4 4v71.5m28 5.5H89v-5h35.927"/><path fill="#004165" stroke="#004165" stroke-linecap="round" stroke-linejoin="round" stroke-miterlimit="10" stroke-width="1.6" d="M28.11 128.001c0 8.38 7.162 15.167 15.987 15.167 8.833 0 15.987-6.787 15.987-15.167 0-8.38-7.163-15.167-15.988-15.167-8.833 0-15.987 6.787-15.987 15.167z"/><path fill="#fff" d="M36.307 128.001a7.786 7.786 0 007.788 7.789c4.305 0 7.789-3.485 7.789-7.789s-3.484-7.789-7.789-7.789a7.791 7.791 0 00-7.788 7.789z"/><path stroke="#004165" stroke-linecap="round" stroke-linejoin="round" stroke-width="1.6" d="M17.515 119.236v-10.673c-.352-1.905.528-6.496 6.862-9.615 7.917-3.897 9.765-3.638 10.82-5.716.845-1.663 9.677-15.765 13.987-22.608 1.32-2.252 6.07-6.964 14.515-7.796H84.02c1.584-.086 4.75.832 4.75 5.197v57.429c.089 2.079-.791 6.237-5.014 6.237H63.952"/><path stroke="#004165" stroke-linecap="round" stroke-linejoin="round" stroke-width="1.6" d="M47.623 98.279v8.516c7.148 0 17.095 6.887 17.86 17.436l7.998-.5c.862 0 2.252-.708 2.252-3.811V86"/><path stroke="#FDC82F" stroke-linecap="round" stroke-linejoin="round" stroke-width="1.6" d="M64.344 100.338h5.739"/><path fill="#fff" d="M24.93 119.393H11.712v9.629c0 3.244 3.238 4.224 4.857 4.308h7.443s-2.142-7.406.918-13.937z"/><path fill="#004165" d="M24.93 119.393l.725.339a.8.8 0 00-.725-1.139v.8zm-.918 13.937v.8a.8.8 0 00.768-1.022l-.768.222zm-7.443 0l-.041.799.02.001h.021v-.8zm-4.857-13.937v-.8a.8.8 0 00-.8.8h.8zm.81.8H24.93v-1.6H12.521v1.6zm11.684-1.14c-1.607 3.43-1.838 7.062-1.681 9.804.079 1.375.256 2.541.415 3.365a20.15 20.15 0 00.276 1.23l.02.072.005.019.002.006v.003l.769-.222.769-.222c0 .001 0 .001 0 0v-.002a.191.191 0 01-.004-.012l-.015-.055a18.302 18.302 0 01-.25-1.119 24.26 24.26 0 01-.39-3.155c-.149-2.595.08-5.932 1.533-9.033l-1.45-.679zm-.194 13.477h-7.443v1.6h7.443v-1.6zm-7.401.001c-.707-.037-1.775-.275-2.64-.84-.832-.543-1.46-1.368-1.46-2.669h-1.6c0 1.943.993 3.23 2.185 4.009 1.158.756 2.519 1.051 3.432 1.098l.083-1.598zm-4.1-3.509v-9.629h-1.6v9.629h1.6zm-.8-8.829h.81v-1.6h-.81v1.6z"/><path fill="#E2EFF4" stroke="#004165" stroke-width="1.6" d="M76 86.589c0 5.929-4.734 7.41-7.1 7.41H34l15-23h22.792C75.158 71 76 73.045 76 74.068V86.59z"/><path fill="#fff" stroke="#004165" stroke-width="1.6" d="M46.145 94.797c0 3.17 2.936 5.739 6.558 5.739V89.058c-3.622 0-6.559 2.57-6.559 5.739z"/><path stroke="#004165" stroke-width="1.6" d="M95 52h122"/><path stroke="#BFDEEE" stroke-linecap="round" stroke-linejoin="round" stroke-width="1.6" d="M77.909 14.085c0-2.808-2.442-5.085-5.454-5.085C69.443 9 67 11.277 67 14.085"/><path stroke="#BFDEEE" stroke-linecap="round" stroke-linejoin="round" stroke-width="1.6" d="M88.817 14.085c0-2.808-2.442-5.085-5.454-5.085-3.013 0-5.455 2.277-5.455 5.085m15.233 9.654c0-1.818-1.58-3.29-3.53-3.29s-3.53 1.472-3.53 3.29"/><path stroke="#BFDEEE" stroke-linecap="round" stroke-linejoin="round" stroke-width="1.6" d="M100.201 23.739c0-1.818-1.58-3.29-3.53-3.29-1.95 0-3.53 1.472-3.53 3.29"/><mask id="a" width="9" height="9" x="179" y="118" maskUnits="userSpaceOnUse" style="mask-type:alpha"><path fill="#fff" d="M181.334 118.462h3.941c1.044 0 1.891.847 1.891 1.891v3.941a1.891 1.891 0 01-1.891 1.891h-3.941a1.891 1.891 0 01-1.891-1.891v-3.941c0-1.044.847-1.891 1.891-1.891z"/></mask><g mask="url(#a)"><path fill="#F0FAFF" d="M181.334 118.462h3.941c1.044 0 1.891.847 1.891 1.891v3.941a1.891 1.891 0 01-1.891 1.891h-3.941a1.891 1.891 0 01-1.891-1.891v-3.941c0-1.044.847-1.891 1.891-1.891z"/><path fill="#004165" fill-rule="evenodd" d="M187.488 123.54h-8.366v2.966h8.366v-2.966z" clip-rule="evenodd" opacity=".2"/></g><path stroke="#004165" stroke-linecap="round" stroke-linejoin="round" stroke-width="1.6" d="M181.334 118.462h3.941c1.044 0 1.891.847 1.891 1.891v3.941a1.891 1.891 0 01-1.891 1.891h-3.941a1.891 1.891 0 01-1.891-1.891v-3.941c0-1.044.847-1.891 1.891-1.891z" clip-rule="evenodd"/><mask id="c" width="11" height="11" x="159" y="118" maskUnits="userSpaceOnUse" style="mask-type:alpha"><use xlink:href="#b"/></mask><g mask="url(#c)"><use xlink:href="#b"/><path fill="#004165" fill-rule="evenodd" d="M170.176 125.808h-10.812v2.848h10.812v-2.848z" clip-rule="evenodd" opacity=".15"/></g><path stroke="#004165" stroke-linecap="round" stroke-linejoin="round" stroke-width="1.6" d="M162.402 118.462h5.044a2.421 2.421 0 012.421 2.421v5.043a2.421 2.421 0 01-2.421 2.421h-5.044a2.42 2.42 0 01-2.42-2.421v-5.043a2.42 2.42 0 012.42-2.421z" clip-rule="evenodd"/><path stroke="#004165" stroke-linecap="round" stroke-linejoin="round" stroke-width="1.6" d="M167.396 123.25h-4.943m4.943 2.545h-4.943m4.943-5.09h-4.943"/><path fill="#004165" fill-rule="evenodd" d="M216.205 136.07c0 8.019-6.5 14.519-14.519 14.519s-14.519-6.5-14.519-14.519 6.5-14.519 14.519-14.519 14.519 6.5 14.519 14.519zm-61.166 0c0 8.019-6.5 14.519-14.519 14.519s-14.519-6.5-14.519-14.519 6.5-14.519 14.519-14.519 14.519 6.5 14.519 14.519z" clip-rule="evenodd"/><path stroke="#004165" stroke-linecap="round" stroke-linejoin="round" stroke-width="1.6" d="M129.089 123.567a16.864 16.864 0 0111.475-4.487c9.358 0 16.946 7.606 16.946 16.99m27.185 0c0-6.634 3.789-12.38 9.314-15.178a16.815 16.815 0 017.618-1.812c6.428 0 12.02 3.595 14.887 8.891"/><path fill="#F2FAFD" fill-rule="evenodd" d="M150.096 136.07c0 5.289-4.288 9.577-9.577 9.577s-9.576-4.288-9.576-9.577 4.287-9.576 9.576-9.576c5.289 0 9.577 4.287 9.577 9.576z" clip-rule="evenodd"/><path fill="#fff" fill-rule="evenodd" stroke="#004165" stroke-linecap="round" stroke-linejoin="round" stroke-width="1.6" d="M145.771 135.915a5.098 5.098 0 11-10.196 0 5.098 5.098 0 0110.196 0z" clip-rule="evenodd"/><path stroke="#004165" stroke-linecap="round" stroke-linejoin="round" stroke-width="1.6" d="M142.682 135.916a2.008 2.008 0 11-4.016 0 2.008 2.008 0 014.016 0z" clip-rule="evenodd"/><path fill="#F2FAFD" fill-rule="evenodd" d="M211.262 136.07c0 5.289-4.288 9.577-9.577 9.577s-9.576-4.288-9.576-9.577 4.287-9.576 9.576-9.576c5.289 0 9.577 4.287 9.577 9.576z" clip-rule="evenodd"/><path fill="#fff" fill-rule="evenodd" d="M152.362 100.854h6.378a.93.93 0 00.933-.927.93.93 0 00-.933-.927h-5.863" clip-rule="evenodd"/><path stroke="#004165" stroke-linecap="round" stroke-linejoin="round" stroke-width="1.6" d="M152.362 100.854h6.378a.93.93 0 00.933-.927.93.93 0 00-.933-.927h-5.863"/><mask id="d" width="9" height="9" x="140" y="104" maskUnits="userSpaceOnUse" style="mask-type:alpha"><path fill="#fff" d="M144.872 112.229h-3.989v-7.977h3.989a3.987 3.987 0 013.988 3.988v.001a3.988 3.988 0 01-3.988 3.988z"/></mask><g mask="url(#d)"><path fill="#BFDEEE" d="M144.872 112.229h-3.989v-7.977h3.989a3.987 3.987 0 013.988 3.988v.001a3.988 3.988 0 01-3.988 3.988z"/><path fill="#004165" fill-rule="evenodd" d="M148.86 112.351h-8.34v-2.848h8.34v2.848z" clip-rule="evenodd" opacity=".2"/></g><path stroke="#004165" stroke-linecap="round" stroke-linejoin="round" stroke-width="1.6" d="M144.845 112.283h-4.017v-8.031h4.017a4.015 4.015 0 014.015 4.015v.001a4.015 4.015 0 01-4.015 4.015z" clip-rule="evenodd"/><path stroke="#004165" stroke-linecap="round" stroke-linejoin="round" stroke-width="1.6" d="M143.455 104.252v7.722"/><mask id="f" width="36" height="7" x="174" y="110" maskUnits="userSpaceOnUse" style="mask-type:alpha"><use xlink:href="#e"/></mask><g mask="url(#f)"><use xlink:href="#e"/><path fill="#004165" fill-rule="evenodd" d="M209.1 116.985h-34.908v-2.848H209.1v2.848z" clip-rule="evenodd" opacity=".2"/></g><path stroke="#004165" stroke-linecap="round" stroke-linejoin="round" stroke-width="1.6" d="M174.501 114.414c0-1.313 1.03-2.403 2.36-2.497l25.265-1.475c3.783-.221 6.974 2.741 6.974 6.475h-32.059c-1.402 0-2.54-1.121-2.54-2.503z" clip-rule="evenodd"/><path stroke="#004165" stroke-linecap="round" stroke-linejoin="round" stroke-width="1.6" d="M148.112 113.674l13.575 20.234c1.268 2.008 2.35 2.78 5.09 2.78h17.917m-8.305-9.942l-10.857 3.764"/><path fill="#fff" fill-rule="evenodd" stroke="#004165" stroke-linecap="round" stroke-linejoin="round" stroke-width="1.6" d="M172.956 131.436c0 2.73 2.282 4.943 5.097 4.943 2.815 0 5.097-2.213 5.097-4.943 0-2.73-2.282-4.942-5.097-4.942-2.815 0-5.097 2.212-5.097 4.942z" clip-rule="evenodd"/><path fill="#fff" fill-rule="evenodd" d="M176.045 131.282a2.007 2.007 0 104.015.001 2.007 2.007 0 00-4.015-.001z" clip-rule="evenodd"/><path stroke="#004165" stroke-linecap="round" stroke-linejoin="round" stroke-width="1.6" d="M176.045 131.282a2.007 2.007 0 104.015.001 2.007 2.007 0 00-4.015-.001z" clip-rule="evenodd"/><path fill="#fff" fill-rule="evenodd" stroke="#004165" stroke-linecap="round" stroke-linejoin="round" stroke-width="1.6" d="M163.38 132.981a2.47 2.47 0 104.941 0 2.47 2.47 0 00-4.941 0z" clip-rule="evenodd"/><path fill="#fff" fill-rule="evenodd" d="M206.628 136.07c0 2.73-2.282 4.943-5.098 4.943-2.814 0-5.096-2.213-5.096-4.943" clip-rule="evenodd"/><path stroke="#004165" stroke-linecap="round" stroke-linejoin="round" stroke-width="1.6" d="M206.628 136.07c0 2.73-2.282 4.943-5.098 4.943-2.814 0-5.096-2.213-5.096-4.943"/><path stroke="#004165" stroke-linecap="round" stroke-linejoin="round" stroke-width="1.6" d="M203.539 135.916a2.008 2.008 0 11-4.016 0 2.008 2.008 0 014.016 0z" clip-rule="evenodd"/><mask id="h" width="36" height="5" x="184" y="132" maskUnits="userSpaceOnUse" style="mask-type:alpha"><use xlink:href="#g"/></mask><g mask="url(#h)"><use xlink:href="#g"/><path fill="#004165" fill-rule="evenodd" d="M219.912 136.632h-35.245v-1.866h35.245v1.866z" clip-rule="evenodd" opacity=".2"/></g><mask id="i" width="25" height="11" x="149" y="106" maskUnits="userSpaceOnUse" style="mask-type:alpha"><path fill="#fff" d="M153.803 116.903a4.634 4.634 0 01-4.634-4.634v-.384a5.018 5.018 0 015.018-5.017s14.251-1.516 19.232 5.825c1.214 1.789-.116 4.21-2.278 4.21h-17.338z"/></mask><g mask="url(#i)"><path fill="#BFDEEE" d="M153.803 116.903a4.634 4.634 0 01-4.634-4.634v-.384a5.018 5.018 0 015.018-5.017s14.251-1.516 19.232 5.825c1.214 1.789-.116 4.21-2.278 4.21h-17.338z"/><path fill="#004165" fill-rule="evenodd" d="M173.7 117.001h-24.647v-2.849H173.7v2.849z" clip-rule="evenodd" opacity=".2"/></g><path stroke="#004165" stroke-linecap="round" stroke-linejoin="round" stroke-width="1.6" d="M171.453 116.917h-17.34a4.641 4.641 0 01-4.634-4.647v-.385a5.025 5.025 0 015.018-5.032s14.253-1.521 19.234 5.842c1.214 1.794-.116 4.222-2.278 4.222z" clip-rule="evenodd"/><mask id="j" width="6" height="6" x="209" y="114" maskUnits="userSpaceOnUse" style="mask-type:alpha"><path fill="#fff" d="M211.656 114.137h2.585v5.169h-2.585a2.584 2.584 0 01-2.584-2.584v-.001a2.584 2.584 0 012.584-2.584z"/></mask><g mask="url(#j)"><path fill="#BFDEEE" d="M211.656 114.137h2.585v5.169h-2.585a2.584 2.584 0 01-2.584-2.584v-.001a2.584 2.584 0 012.584-2.584z"/><path fill="#004165" fill-rule="evenodd" d="M214.66 119.389h-5.56v-1.854h5.56v1.854z" clip-rule="evenodd" opacity=".2"/></g><path stroke="#004165" stroke-linecap="round" stroke-linejoin="round" stroke-width="1.6" d="M211.725 114.137h2.626v5.252h-2.626a2.626 2.626 0 01-2.626-2.626v-.001a2.626 2.626 0 012.626-2.625z" clip-rule="evenodd"/><path stroke="#004165" stroke-linecap="round" stroke-linejoin="round" stroke-width="1.6" d="M212 114.137v5.252"/><path stroke="#004165" stroke-linecap="round" stroke-linejoin="round" stroke-width="1.6" d="M219.911 136.688v-4.634h-30.642c-2.527 0-4.574 2.075-4.574 4.634h35.216z" clip-rule="evenodd"/><path stroke="#7A99AC" stroke-linecap="round" stroke-linejoin="round" stroke-width="1.6" d="M235.357 133.884h-9.267m6.178-2.78H223m-40.521-27.734h-9.268m6.178-2.781h-9.268"/></svg>