<svg xmlns="http://www.w3.org/2000/svg" viewBox="0 0 19.765 14.556"><path d="M13.865 14.556L0 6.551l5.9-3.406 13.865 8.005z" opacity=".3"/><path d="M10.235 11.275l1.589-.918V9.114l-1.856.837zM1.632 6.308L3.22 5.39V4.147l-1.856.837z"/><path fill="#383838" d="M14.865 4.333l-.418.24a.186.186 0 00-.08.143v.18c0 .025.006.042.02.05.001.005.195.099.195.099v-.003c-.017-.006-.025-.025-.025-.054V4.81a.363.363 0 01.083-.143l.28-.307c.024-.013.044-.013.058-.007l-.055-.026c-.013-.008-.034-.008-.058.006z"/><path fill="#050505" d="M14.92 4.36l-.28.307c-.05.05-.083.102-.083.143v.178c0 .054.036.075.083.05l.28-.308c.056-.055.084-.09.084-.142v-.18c0-.053-.054-.081-.083-.048z"/><path fill="#666" d="M14.44 4.815l-.23.132.077.135.229-.133c.013-.005.019-.017.019-.036a.119.119 0 00-.054-.094c-.017-.01-.031-.012-.042-.004z"/><path fill="#787878" d="M14.196 4.983c0 .034.025.076.055.095.03.017.054.001.054-.033a.12.12 0 00-.054-.094c-.03-.017-.055-.005-.055.032z"/><path fill="#050505" d="M14.21 4.806c-.014-.006-.023-.006-.032 0l-.046.027c.007-.003.016-.003.026.003l.134.077a.095.095 0 01.042.073v.182a.03.03 0 01-.01.025l.047-.028c.008-.004.014-.014.014-.027v-.181a.094.094 0 00-.044-.074z"/><path fill="#383838" d="M14.158 4.836c-.022-.014-.041-.004-.041.023v.182c0 .028.02.06.041.072l.134.078c.024.015.043.001.043-.024v-.18a.093.093 0 00-.043-.074zm.045 7.328l4.94-2.853v-.735l-4.94 2.852z"/><path fill="#dae5f8" d="M14.296 12.042l.93-.537v-.6l-.93.537z"/><path fill="#f5a52e" d="M18.772 8.39l.371.186v.494l.172.1.138-.311-.036-.518-.433-.56-4.15-2.353.252.59zM8.047 1.37L5.604.149 5.33.196v.145l2.972 1.716z"/><path fill="#ffec7a" d="M4.004 5.232l4.298-3.175L5.33.34.413 3.219zM7.801.975L5.671 0 5.33.196l2.128.974.391.02z"/><path fill="#ffec7a" d="M.091 3.221l2.13.975.343-.195-2.132-.976z"/><path fill="#303033" d="M11.489 10.62c-.614-.353-1.11-.065-1.11.642 0 .707.496 1.57 1.11 1.922.613.354 1.11.069 1.11-.64 0-.71-.497-1.569-1.11-1.924z"/><path fill="#474747" d="M12.5 10.036c-.298-.173-.57-.193-.769-.087l-1.02.59c.2-.11.474-.094.778.08.613.356 1.11 1.216 1.11 1.924 0 .34-.115.584-.301.705l1.012-.586c.187-.121.302-.364.302-.704 0-.707-.498-1.568-1.111-1.922z"/><path fill="#575757" d="M11.535 10.596c-.3-.175-.57-.195-.771-.088l-.053.032c.2-.112.474-.095.778.08.613.355 1.11 1.215 1.11 1.923 0 .34-.115.584-.301.705l.046-.027s.301-.172.301-.704c0-.708-.497-1.568-1.11-1.921z"/><path fill="#2b2b2b" d="M11.865 10.405c-.299-.174-.57-.194-.77-.085l-.053.03c.2-.112.475-.094.78.08.61.354 1.109 1.217 1.109 1.925 0 .338-.115.58-.302.702l.045-.026s.303-.174.303-.704c0-.708-.5-1.569-1.112-1.922z"/><path fill="#2b2b2b" d="M12.207 10.207c-.3-.173-.57-.193-.77-.085l-.054.03c.201-.112.475-.093.78.08.61.355 1.11 1.216 1.11 1.924 0 .34-.116.582-.302.704l.044-.027s.301-.173.301-.704c0-.709-.497-1.567-1.109-1.922z"/><path fill="#303033" d="M12.69 12.23l.086-.253-.206-.194.052-.271-.252-.147.027-.282-.29-.088-.027-.27-.296-.042-.069-.194-.362-.039-.112-.104s-.264.066-.336.093c-.027.011-.053.02-.077.034l-.044.024a.504.504 0 01.114-.047c.065-.02.307-.085.307-.085l.118.106.356.037.067.195.298.043.023.264.29.085-.021.29.247.141-.052.268.206.192-.085.256.147.228-.14.217.07.152-.187.187-.025.095.033-.019.013-.073.197-.197-.067-.15.144-.214z"/><path fill="#303033" d="M13.045 12.024l.088-.254-.206-.192.05-.272-.25-.148.027-.282-.29-.088-.028-.268-.296-.044-.068-.194-.362-.04-.114-.102s-.264.067-.334.091a.598.598 0 00-.078.036l-.044.024a.49.49 0 01.116-.048l.305-.085.118.105.357.039.067.195.297.043.024.265.288.085-.02.289.247.142-.052.266.204.192-.084.256.149.23-.139.216.067.152-.185.188-.027.094.036-.02.01-.072.197-.194-.066-.154.144-.212z"/><path fill="#303033" d="M13.397 11.82l.09-.254-.206-.192.05-.271-.249-.147.025-.284-.29-.088-.027-.27-.296-.04-.068-.195-.363-.04-.114-.104s-.261.071-.334.093a.722.722 0 00-.079.035l-.043.023a.569.569 0 01.116-.046c.064-.02.305-.085.305-.085l.12.106.356.037.067.195.298.044.022.264.289.086-.022.289.25.141-.052.266.205.192-.086.257.147.23-.138.215.068.151-.186.19-.025.094.033-.019.013-.072.197-.197-.066-.152.144-.212z"/><path fill="#121214" d="M11.489 10.994c-.436-.25-.788-.048-.788.454 0 .501.352 1.114.788 1.365.435.25.788.048.788-.455s-.354-1.114-.788-1.364z"/><path fill="#919191" d="M11.489 11.109c-.38-.22-.687-.043-.687.396s.308.973.687 1.192c.38.219.688.04.688-.398 0-.437-.308-.97-.688-1.19z"/><path fill="#707070" d="M11.489 11.623c-.135-.078-.243-.015-.243.14a.53.53 0 00.243.42c.135.078.243.016.243-.14a.531.531 0 00-.243-.42z"/><path fill="#575757" d="M11.489 11.83c-.036-.022-.065-.005-.065.036 0 .04.03.092.065.11.035.021.064.004.064-.036a.14.14 0 00-.064-.11z"/><path fill="#4f4f4f" d="M11.588 11.84a.089.089 0 01-.011-.058.016.016 0 00-.012.005c-.018.01-.018.043 0 .074.017.03.045.046.065.036a.027.027 0 00.01-.015c-.016 0-.038-.018-.052-.041z"/><path fill="#2b2b2b" d="M11.577 11.782a.089.089 0 00.011.059c.014.023.036.041.052.041a.086.086 0 00-.01-.059c-.015-.024-.036-.04-.053-.04z"/><path fill="#4f4f4f" d="M11.587 12.09a.08.08 0 01-.013-.059.025.025 0 00-.012.004c-.018.01-.018.043 0 .074.016.03.048.047.065.037a.032.032 0 00.011-.017c-.018 0-.039-.015-.051-.04z"/><path fill="#2b2b2b" d="M11.574 12.031a.08.08 0 00.013.059c.012.024.033.04.051.04.005-.015 0-.036-.011-.058-.014-.025-.035-.039-.053-.04z"/><path fill="#4f4f4f" d="M11.37 11.962c-.012-.021-.016-.043-.012-.058-.005 0-.008 0-.012.003-.018.01-.018.043 0 .073.017.031.047.05.064.038.005-.002.01-.009.013-.016-.02-.002-.04-.018-.054-.04z"/><path fill="#2b2b2b" d="M11.358 11.904a.086.086 0 00.011.058c.014.023.035.038.054.04a.093.093 0 00-.013-.058c-.014-.025-.035-.04-.052-.04z"/><path fill="#4f4f4f" d="M11.372 11.713c-.011-.02-.017-.043-.011-.058-.006 0-.01.002-.014.003-.017.01-.016.044 0 .075.02.03.048.048.066.037.006-.004.01-.009.01-.017-.018 0-.038-.016-.05-.04z"/><path fill="#2b2b2b" d="M11.36 11.655c-.005.015 0 .039.012.058.013.024.033.04.05.04.005-.014 0-.036-.01-.058-.014-.025-.035-.038-.051-.04z"/><path fill="#575757" d="M11.55 11.349a.538.538 0 01-.23-.314.355.355 0 00-.073-.014c.022.143.122.3.242.372.088.05.168.04.21-.017-.042.014-.094.005-.149-.027z"/><path fill="#2b2b2b" d="M11.32 11.035a.538.538 0 00.23.314c.055.032.107.04.149.027a.19.19 0 00.032-.078 1.187 1.187 0 00-.242-.189.67.67 0 00-.17-.074z"/><path fill="#575757" d="M11.768 12.74c-.035-.107-.03-.207.014-.263-.004 0-.006.003-.008.003-.09.033-.113.16-.064.302a.36.36 0 00.318-.076.38.38 0 01-.26.033z"/><path fill="#2b2b2b" d="M11.782 12.477c-.044.056-.049.156-.014.262.1.02.187.006.26-.034a.338.338 0 00.053-.055c-.088-.127-.21-.2-.3-.173z"/><path fill="#575757" d="M11.976 11.95c-.025-.096-.013-.176.023-.224-.08.025-.117.13-.085.268a.54.54 0 00.262.342V12.3c0-.015 0-.029-.002-.044a.568.568 0 01-.198-.306z"/><path fill="#2b2b2b" d="M11.999 11.726c-.036.048-.048.127-.023.223a.57.57 0 00.198.307 1.326 1.326 0 00-.147-.534c-.01 0-.018.002-.028.004z"/><path fill="#575757" d="M10.9 11.973c.083.21.216.41.375.56a.171.171 0 00.022-.078 1.662 1.662 0 01-.322-.486.144.144 0 00-.075.004z"/><path fill="#2b2b2b" d="M10.975 11.97c.078.179.19.348.322.485a.496.496 0 00-.086-.301c-.07-.106-.158-.171-.236-.185z"/><path fill="#575757" d="M10.863 11.498c-.002-.011-.002-.023-.002-.034 0-.151.037-.27.099-.354a.032.032 0 00-.008-.012c-.094.081-.15.22-.15.407v.036c.096.07.195.074.244.006-.052.016-.117 0-.183-.05z"/><path fill="#2b2b2b" d="M10.86 11.464c0 .011 0 .023.003.034.066.05.13.065.183.05a.15.15 0 00.023-.045c.037-.106-.01-.27-.11-.393a.594.594 0 00-.098.354z"/><path fill="#303033" d="M2.878 5.649c-.614-.354-1.11-.066-1.11.641 0 .708.496 1.57 1.11 1.923.612.353 1.11.068 1.11-.641 0-.709-.498-1.568-1.11-1.923z"/><path fill="#474747" d="M3.89 5.064c-.3-.173-.57-.193-.77-.086l-1.02.59c.2-.111.474-.094.778.08.612.356 1.11 1.215 1.11 1.924 0 .34-.115.584-.301.705l1.011-.586c.188-.122.303-.364.303-.705 0-.707-.498-1.568-1.111-1.922z"/><path fill="#575757" d="M2.924 5.624c-.3-.174-.57-.195-.771-.088l-.054.032c.2-.111.475-.094.779.08.612.356 1.11 1.215 1.11 1.924 0 .34-.115.584-.302.705l.046-.027s.302-.173.302-.704c0-.71-.497-1.569-1.11-1.922z"/><path fill="#2b2b2b" d="M3.254 5.433c-.299-.173-.57-.194-.77-.084l-.053.03c.2-.113.475-.095.779.08.611.354 1.11 1.216 1.11 1.924 0 .339-.116.58-.303.703l.046-.027s.302-.173.302-.704c0-.708-.499-1.568-1.111-1.922z"/><path fill="#2b2b2b" d="M3.596 5.236c-.3-.173-.571-.193-.77-.086l-.054.031c.2-.113.475-.094.779.079.611.356 1.11 1.217 1.11 1.925 0 .339-.115.58-.3.704l.043-.028s.302-.173.302-.703c0-.71-.498-1.568-1.11-1.922z"/><path fill="#303033" d="M4.078 7.259l.087-.254-.206-.193.052-.272-.252-.146.027-.283-.29-.087-.027-.27-.296-.042-.069-.194-.362-.039-.113-.104s-.263.067-.335.093a.796.796 0 00-.078.034l-.043.024a.482.482 0 01.114-.047c.065-.02.307-.085.307-.085l.118.106.356.037.067.195.298.043.023.265.29.085-.021.29.246.14-.051.268.205.193-.085.255.147.228-.14.218.07.151-.187.188-.025.094.033-.019.014-.073.196-.196-.066-.151.143-.213z"/><path fill="#303033" d="M4.434 7.052l.088-.254-.207-.192.051-.272-.25-.148.027-.282-.29-.088-.028-.268-.296-.044-.069-.194-.36-.04-.115-.103s-.264.068-.334.092a.544.544 0 00-.077.035l-.045.024a.493.493 0 01.116-.047l.304-.085.119.104.357.04.067.195.297.043.024.265.288.085-.02.29.247.141-.053.266.205.192-.084.257.149.23-.139.216.067.15-.185.19-.027.093.036-.02.01-.072.197-.194-.066-.154.144-.212z"/><path fill="#303033" d="M4.786 6.848l.089-.254-.205-.192.05-.271-.25-.146.026-.285-.29-.088-.027-.27-.296-.04-.068-.196-.363-.04-.114-.103s-.261.07-.334.093a.803.803 0 00-.079.035l-.044.023a.562.562 0 01.116-.046c.065-.02.306-.085.306-.085l.119.106.357.037.067.194.298.044.021.265.289.086-.021.288.249.142-.052.266.205.192-.085.257.146.23-.138.215.068.15-.185.19-.026.095.034-.02.012-.072.197-.197-.065-.152.144-.211z"/><path fill="#121214" d="M2.878 6.022c-.435-.25-.788-.048-.788.455 0 .5.353 1.113.788 1.364.435.251.788.048.788-.454 0-.503-.353-1.114-.788-1.365z"/><path fill="#919191" d="M2.878 6.137c-.38-.219-.688-.042-.688.396 0 .439.308.973.688 1.193.38.218.688.04.688-.398s-.308-.972-.688-1.19z"/><path fill="#707070" d="M2.878 6.652c-.135-.079-.243-.015-.243.14 0 .155.108.344.243.42.135.077.243.016.243-.141a.53.53 0 00-.243-.42z"/><path fill="#575757" d="M2.878 6.858c-.036-.021-.065-.005-.065.036 0 .041.03.092.065.111.035.02.064.004.064-.037a.14.14 0 00-.064-.11z"/><path fill="#4f4f4f" d="M2.977 6.869a.089.089 0 01-.012-.058c-.003 0-.008 0-.01.004-.02.01-.02.043 0 .074.016.03.044.046.064.036a.028.028 0 00.01-.015c-.016 0-.038-.017-.052-.041z"/><path fill="#2b2b2b" d="M2.965 6.81a.089.089 0 00.012.059c.014.024.036.041.052.041a.088.088 0 00-.01-.059c-.015-.024-.036-.04-.054-.04z"/><path fill="#4f4f4f" d="M2.976 7.118c-.013-.021-.017-.043-.013-.058a.026.026 0 00-.012.004c-.018.01-.018.042 0 .074.017.03.048.046.065.037a.033.033 0 00.011-.017c-.018 0-.039-.016-.051-.04z"/><path fill="#2b2b2b" d="M2.963 7.06c-.004.015 0 .037.013.058.012.024.033.04.051.04.005-.014 0-.036-.011-.058-.014-.025-.035-.038-.053-.04z"/><path fill="#4f4f4f" d="M2.759 6.99c-.012-.021-.016-.043-.012-.058-.005 0-.008 0-.012.003-.018.01-.018.043 0 .073.017.031.047.05.063.038a.045.045 0 00.014-.016c-.02-.001-.04-.017-.053-.04z"/><path fill="#2b2b2b" d="M2.747 6.932a.084.084 0 00.012.058c.013.023.034.039.053.04a.093.093 0 00-.014-.058c-.013-.024-.034-.04-.051-.04z"/><path fill="#4f4f4f" d="M2.76 6.741c-.01-.019-.016-.043-.01-.057a.029.029 0 00-.014.003c-.018.01-.017.043 0 .075.02.03.048.048.065.037.006-.004.01-.009.01-.017-.017-.001-.037-.016-.05-.04z"/><path fill="#2b2b2b" d="M2.75 6.683c-.006.015 0 .039.01.058.014.024.034.04.052.04.004-.014 0-.036-.01-.058-.015-.025-.036-.038-.052-.04z"/><path fill="#575757" d="M2.939 6.377a.54.54 0 01-.23-.314.338.338 0 00-.073-.013.57.57 0 00.242.372c.089.05.168.04.21-.018-.042.014-.095.006-.149-.027z"/><path fill="#2b2b2b" d="M2.709 6.063a.538.538 0 00.23.314c.055.033.107.041.149.027a.194.194 0 00.032-.078 1.19 1.19 0 00-.242-.189.685.685 0 00-.17-.074z"/><path fill="#575757" d="M3.158 7.768c-.036-.107-.031-.207.013-.262l-.008.002c-.09.033-.113.16-.064.302a.36.36 0 00.318-.076.38.38 0 01-.26.034z"/><path fill="#2b2b2b" d="M3.17 7.506c-.043.055-.048.155-.012.262.099.02.186.005.259-.034a.333.333 0 00.052-.055c-.087-.128-.208-.202-.298-.173z"/><path fill="#575757" d="M3.364 6.978c-.024-.096-.013-.176.024-.223-.08.024-.118.129-.085.267.038.15.148.29.261.342l.002-.036-.003-.043a.571.571 0 01-.199-.307z"/><path fill="#2b2b2b" d="M3.388 6.755c-.037.047-.048.127-.024.223.031.123.11.24.2.307a1.333 1.333 0 00-.148-.534c-.01 0-.018.002-.028.004z"/><path fill="#575757" d="M2.288 7c.084.212.217.412.376.561a.171.171 0 00.022-.078 1.672 1.672 0 01-.321-.485.142.142 0 00-.077.003z"/><path fill="#2b2b2b" d="M2.365 6.998c.077.179.189.348.321.485a.494.494 0 00-.086-.301c-.07-.106-.158-.17-.235-.184z"/><path fill="#575757" d="M2.252 6.526c-.003-.01-.003-.023-.003-.033 0-.152.038-.27.1-.355-.002-.005-.004-.007-.008-.011-.094.08-.15.219-.15.407v.036c.096.07.195.073.244.005-.052.016-.118 0-.183-.049z"/><path fill="#2b2b2b" d="M2.25 6.493c0 .01 0 .022.002.033.065.05.13.065.183.05a.152.152 0 00.023-.044c.036-.107-.01-.271-.109-.394a.589.589 0 00-.1.355z"/><path fill="#f5a52e" d="M.091 3.221l2.131.975 1.99-.758 3.974 2.295 1.409 2.72 4.089 2.616.393.54v.585l-.173-.1v.922l-1.158-.353-.007-.003c.003-.038.005-.077.005-.117 0-.764-.52-1.664-1.183-2.048a1.144 1.144 0 00-.567-.17c-.461 0-.76.367-.76.937l.001.012-6.102-3.522c.004-.046.007-.093.007-.141 0-.764-.52-1.664-1.182-2.048a1.146 1.146 0 00-.568-.17c-.455 0-.75.358-.758.914l-.038-.021L.089 5.02z"/><path fill="#ffc654" d="M14.203 11.428l4.94-2.852-.292-.4-4.98 2.875z"/><path fill="#ffec7a" d="M13.871 11.051l4.98-2.875-4.017-2.748-4.899 2.829z"/><path fill="#ffc654" d="M15.144 5.849l3.41 2.332-4.62 2.667-3.34-2.372z" opacity=".5"/><path fill="#ffc654" d="M9.595 8.453l-1.41-2.72.652-1.278 3.38-1.627.92.046 2.037 2.358z"/><path fill="#295e87" d="M15.03 5.182l-1.837-2.126-.058.034 1.77 2.05-5.338 3.082.045.088z"/><path fill="#517fa2" d="M8.341 5.857l1.226 2.365 5.339-3.082-1.771-2.05z"/><path fill="#659ec9" d="M13.135 3.09l1.081 1.252.31.607-2.306-1.331z"/><path fill="#ffc654" d="M9.161.58l-1.36.395-5.58 3.221 1.99-.758z"/><path fill="#295e87" d="M7.913 1.064l-4.556 2.63-.479.183 4.953-2.86.84-.245-.246.143z"/><path fill="#517fa2" d="M8.425.915L4.102 3.41l-.745.284 4.556-2.631z"/><path fill="#ffec7a" d="M4.21 3.438l3.976 2.295 4.952-2.858L9.161.579z"/><path d="M9.26.896L12.7 2.88l.094-.055L9.354.841z" opacity=".3"/><path fill="#acb1cc" d="M9.265.49l3.284 1.895.095-.055L9.359.435z"/><path fill="#5b6294" d="M9.26.896L9.353.84l.114-.219-.094.055zm1.592.917l.095-.053v-.284l-.095.054zm1.698.572l.15.496.094-.055-.15-.496z"/><path fill="#7d82ad" d="M12.44 2.446l.114.352.145.083-.15-.496L9.265.489l-.15.322.144.085.115-.219 1.316.76v.282l.162.094V1.53z"/><path d="M4.713 3.52l3.44 1.985.095-.054-3.44-1.986z" opacity=".3"/><path fill="#acb1cc" d="M4.72 3.114l3.284 1.895.094-.054-3.285-1.896z"/><path fill="#5b6294" d="M4.713 3.52l.095-.055.115-.218-.095.054zm1.593.918l.095-.054V4.1l-.095.054zm1.698.572l.15.495.094-.054-.15-.496z"/><path fill="#7d82ad" d="M7.894 5.07l.114.352.146.083-.15-.496-3.285-1.895-.15.322.144.084.115-.219 1.316.76v.282l.162.095v-.284z"/><path fill="#ffec7a" d="M9.595 8.453l4.089 2.616.343-.195-4.092-2.617z"/><path fill="#ffc654" d="M13.684 11.07l.393.54.342-.195-.394-.542z"/><path fill="#ffec7a" d="M14.077 11.61v.585l.342-.195v-.585zm.757-6.182l4.089 2.616.342-.195-4.09-2.617z"/><path fill="#ffc654" d="M18.923 8.044l.392.541.343-.195-.394-.542z"/><path fill="#ffec7a" d="M19.315 8.585v.585l.343-.195-.002-.586z"/><path fill="gray" d="M19.315 9.17v.742l.343-.195v-.742z"/><path fill="#575757" d="M19.143 9.991l.172-.08V9.17l-.172-.1z"/><path fill="#adadad" d="M14.419 12.238l4.896-2.828-.172-.099-4.896 2.828z"/><path fill="gray" d="M19.477 9.637l-.162-.227-4.896 2.828-.172.401.172.1 4.896-2.827z"/><path fill="#575757" d="M16.123 11.327l1.478-.854.045.026-1.478 1.385-.045-.026z"/><path fill="#fff" d="M17.646 11.03l-1.478.854v-.532l1.478-.853z"/><path fill="gray" d="M14.077 12.195v.741l.342-.195V12z"/><path fill="#575757" d="M13.904 13.016l.173-.08v-.741l-.173-.1z"/><path fill="#dae5f8" d="M18.13 9.828l.93-.537v-.6l-.93.537z"/><path fill="#050505" d="M15.321 11.45l2.703-1.56v-.6l-2.703 1.56z"/><path fill="#adadad" d="M15.303 10.84l2.74-1.581v.64l-2.74 1.582zm2.703-1.519l-2.667 1.54v.558l2.667-1.54z"/><path fill="#adadad" d="M18.024 9.379v.034l-2.703 1.56v-.034zm0 .096v.034l-2.703 1.56v-.033zm0 .096v.034l-2.703 1.56v-.033zm0 .096v.034l-2.703 1.56v-.033zm0 .096v.034l-2.703 1.561v-.034z"/><path fill="#383838" d="M13.434 6.347l.319.205.918-.528-.32-.205zm-2.833 1.635l.319.205.917-.528-.318-.205z"/><path fill="#00537d" d="M6.767 5.09l.066.038-.221 1.35L9.094 7.91l.069.134-2.632-1.519z"/><path fill="#295e87" d="M9.094 7.91L6.612 6.479l.221-1.35 1.194.69z"/><path fill="#00537d" d="M6.192 6.235l-.014.087-2.47-1.426.084-.046z"/><path fill="#295e87" d="M6.414 4.886l-.222 1.35-2.4-1.386 1.297-.73z"/><path fill="#5b6294" d="M4.776 3.94L4.36 3.7l-1.649.62.699.403z"/><path fill="#050505" d="M8.9 7.967c-.012-.005-.024-.007-.03-.003l-.048.03c.008-.005.017-.003.027.002l.134.077a.097.097 0 01.044.073v.181c0 .013-.006.022-.012.026l.047-.027c.01-.005.014-.013.014-.029v-.18c0-.027-.02-.06-.042-.073z"/><path fill="#383838" d="M8.85 7.996c-.023-.014-.041-.002-.041.026v.18c0 .027.018.06.042.071l.132.08c.024.013.045.002.045-.026v-.18a.097.097 0 00-.045-.074z"/><path fill="#666" d="M8.869 8.1l-.231.132.077.134.231-.132c.011-.006.016-.018.016-.037a.115.115 0 00-.054-.094c-.015-.01-.029-.01-.04-.004z"/><path fill="#787878" d="M8.624 8.266a.13.13 0 00.056.096c.029.016.054.003.054-.032a.13.13 0 00-.054-.096c-.03-.016-.056-.002-.056.032z"/><path fill="#383838" d="M8.477 8.023l-.417.24a.191.191 0 00-.083.144v.181c0 .023.01.041.023.05l.074.038c-.016-.008-.025-.028-.025-.052v-.181a.19.19 0 01.082-.144l.533-.181c.024-.013.044-.015.058-.008l-.184-.093c-.016-.008-.036-.008-.06.006z"/><path fill="#050505" d="M8.664 8.118l-.533.181a.19.19 0 00-.083.144v.181c0 .052.038.073.083.047l.533-.183a.183.183 0 00.084-.143v-.181c0-.052-.037-.074-.084-.046z"/><path fill="#acb1cc" d="M7.074 7.277l-.394-.23c-.019-.012-.038-.012-.05-.002v-.002l-.069.04.068.065a.138.138 0 00.052.06l.3.177.08.093.06-.035c.014-.006.022-.022.022-.044 0-.045-.03-.1-.07-.122z"/><path fill="#5b6294" d="M7.003 7.317l-.393-.231c-.037-.02-.07-.004-.07.041 0 .043.033.1.07.122l.393.229c.04.022.071.003.071-.041a.151.151 0 00-.071-.12z"/><path fill="#f26716" d="M13.488 11.424l-.188-.11c-.012-.007-.023-.007-.03-.001l-.04.022.04.039a.081.081 0 00.03.035l.133.079.047.054.036-.02c.008-.004.013-.013.013-.026a.09.09 0 00-.041-.072z"/><path fill="#ff8530" d="M13.446 11.447l-.188-.11c-.022-.012-.041-.002-.041.025 0 .025.019.058.041.072l.188.109c.023.012.042.002.042-.025a.09.09 0 00-.042-.07z"/><path fill="#acb1cc" d="M4.272 5.66l-.393-.23c-.019-.012-.038-.012-.05-.003h-.001l-.068.038.068.066a.138.138 0 00.051.06l.3.177.08.093.061-.035c.014-.006.022-.022.022-.044 0-.045-.03-.1-.07-.123z"/><path fill="#5b6294" d="M4.202 5.7l-.393-.231c-.038-.02-.07-.003-.07.041 0 .044.032.1.07.122l.393.23c.04.021.07.003.07-.042a.15.15 0 00-.07-.12z"/><path fill="#050505" d="M3.535 4.796v1.077l.008.008c.8.735.728 1.78.727 1.791l-.001.015.013.008 5.05 2.915V8.123l-1.21-2.358-.006-.004-1.483-.856h-.001l-.043-.026-1.605-.926-.012.006zm2.82 1.615l.269-1.457 1.462.844 1.197 2.336v2.392L6.356 8.837zM3.582 4.824l1.401-.816 1.596.92-.271 1.48V8.81l-1.99-1.15c.006-.133.021-1.107-.736-1.807v-1.03z" opacity=".3"/></svg>