<svg xmlns="http://www.w3.org/2000/svg" fill="none" viewBox="0 0 487 569"><path fill="#F9A09A" fill-rule="evenodd" d="M165.835 361.257c20.562-13.019 57.489-36.596 78.752-48.561 21.351-11.876 26.951-12.141 31.412-9.854 4.55 2.286 7.964 7.125 6.825 13.197-1.226 6.069-7.001 13.458-29.051 30.352-21.963 16.891-60.027 43.372-80.502 57.799-20.475 14.34-23.364 16.715-26.862 12.579-3.587-4.222-7.788-14.955-9.976-20.848-2.099-5.894-2.099-6.951-1.664-8.887.525-1.935 1.488-4.839 4.025-7.565 2.454-2.642 6.566-5.103 27.041-18.212Zm15.561 39.227c19.95-12.844 56.088-36.246 76.387-47.683 20.299-11.436 24.939-10.908 28.612-8.797 3.676 2.111 6.476 5.808 5.862 10.733-.701 4.926-4.813 11.084-25.726 28.678-20.824 17.595-58.45 46.715-78.313 62.021-19.864 15.305-21.877 16.801-25.202 11.876-3.238-5.015-7.701-16.452-9.976-22.609-2.275-6.247-2.275-7.215-1.837-9.151.439-1.847 1.401-4.662 3.849-7.215 2.368-2.547 6.304-5.009 26.344-17.853Z" clip-rule="evenodd"/><path fill="#F9A09A" fill-rule="evenodd" d="M184.632 448.614c19.25-12.755 53.9-35.718 73.415-47.066 19.512-11.347 23.889-11.083 27.562-9.15 3.587 1.936 6.477 5.454 6.038 10.204-.525 4.751-4.287 10.819-23.799 27.271-19.426 16.451-54.601 43.372-74.113 56.041-19.425 12.755-23.275 11.261-26.951 7.476-3.677-3.786-7.35-10.03-9.187-13.548-1.837-3.608-1.837-4.576-1.488-6.422.349-1.847 1.226-4.486 3.414-7.126 2.269-2.55 5.946-4.926 25.109-17.68Z" clip-rule="evenodd"/><path fill="#24435E" fill-rule="evenodd" d="M126.889 253.045c42.701 15.309 179.204 74.779 215.166 69.411 5.862 12.404 22.837 35.542 16.45 49.794-63.527 142.077-14.699 33.167-78.313 175.244-6.912 15.484-23.8 24.106-37.363 19.267-35.175-12.58-70.177-25.16-105.265-37.74-35.088-12.58-70.1767-25.249-105.2649-37.739-5.5131-2.022-9.7113-5.983-12.3382-10.998 0 0-15.92491-22.434-16.36324-23.313C37.6364 485.474 81.735 330.377 101.512 286.213c6.915-15.484 11.727-38.093 25.377-33.168Z" clip-rule="evenodd"/><path fill="#24435E" fill-rule="evenodd" d="M118.75 234.84c35.089 12.58 70.177 25.16 105.265 37.74 35.002 12.579 70.09 25.248 105.175 37.828 13.65 4.84 19.163 21.556 12.252 37.036-63.527 142.168-14.789 33.168-78.4 175.246-6.911 15.573-23.713 24.192-37.363 19.266-35.088-12.493-70.177-25.16-105.265-37.739-35.088-12.58-70.1763-25.16-105.2645-37.74-13.56364-4.84-19.07676-21.552-12.16222-37.036C66.6011 287.363 17.7764 396.274 81.3872 254.109c6.9114-15.486 23.7128-24.195 37.3628-19.269Z" clip-rule="evenodd"/><path fill="#3E6587" fill-rule="evenodd" d="M332.593 311.9c11.113 6.247 15.138 21.378 8.838 35.543-63.527 142.167-14.789 33.167-78.4 175.245-6.911 15.572-23.713 24.191-37.363 19.266-1.575-.529-3.238-1.143-4.813-1.672 13.651 4.84 30.452-3.782 37.45-19.266 63.79-142.517 15.314-33.957 79.014-176.563 5.514-12.229 3.239-25.163-4.726-32.553Z" clip-rule="evenodd"/><path fill="#0F0" fill-rule="evenodd" d="M271.089 336.972c9.186 4.311 12.514 16.801 7.436 27.974-5.161 11.261-16.712 16.89-25.902 12.668-9.276-4.222-12.6-16.801-7.436-27.973 5.075-11.262 16.626-16.891 25.902-12.669Z" clip-rule="evenodd"/><path fill="#7DCBFF" fill-rule="evenodd" d="M112.881 73.1328c-8.575 5.4541-20.0363 2.9899-25.5494-5.6292-5.4236-8.6222-2.9758-20.1449 5.5995-25.6882C131.869 16.8308 176.934 2.40424 223.221.293262 267.758-1.81772 313.524 7.41897 356.048 29.5889c31.675 16.4515 58.626 38.4431 80.326 64.2205 22.488 26.8316 39.29 57.7096 49.702 90.6126 3.062 9.765-2.362 20.145-12.076 23.224-9.711 3.079-20.037-2.286-23.099-12.052-8.924-28.327-23.361-54.808-42.787-77.857-18.638-22.2561-41.827-41.172-68.951-55.3343-36.576-19.0019-75.952-27.0064-114.364-25.1597-39.639 1.8437-78.404 14.2484-111.918 35.8898Z" clip-rule="evenodd"/><path fill="#7DCBFF" fill-rule="evenodd" d="M154.1 137.799c-8.575 5.543-19.95 2.99-25.463-5.629-5.513-8.619-2.976-20.059 5.599-25.599 27.649-17.7698 59.589-27.9744 92.489-29.56 31.588-1.4073 64.052 5.1898 94.238 20.8485 22.488 11.7015 41.651 27.3595 56.965 45.5715 16.012 19.002 27.911 40.908 35.264 64.31 3.062 9.765-2.275 20.145-11.986 23.224-9.711 3.079-20.037-2.286-23.099-12.051-5.951-18.738-15.576-36.333-28.35-51.552-12.338-14.78-27.738-27.271-45.762-36.686-24.152-12.579-50.226-17.858-75.69-16.626-26.254 1.226-51.893 9.409-74.205 23.749Z" clip-rule="evenodd"/><path fill="#7DCBFF" fill-rule="evenodd" d="M195.393 202.549c-8.575 5.454-19.95 2.99-25.463-5.629-5.513-8.623-2.976-20.145 5.599-25.689 16.274-10.469 35.175-16.451 54.601-17.419 18.724-.879 37.801 3.079 55.649 12.315 13.388 6.951 24.677 16.188 33.777 26.921 9.362 11.262 16.45 24.192 20.824 38.004 3.062 9.765-2.275 20.234-11.987 23.313-9.711 3.079-20.126-2.375-23.188-12.141-2.886-9.15-7.612-17.769-13.912-25.248-6.038-7.215-13.564-13.373-22.402-17.948-11.813-6.158-24.676-8.798-37.187-8.183-12.773.617-25.371 4.664-36.311 11.704Z" clip-rule="evenodd"/></svg>
