<?xml version="1.0" standalone="no"?>
<!DOCTYPE svg PUBLIC "-//W3C//DTD SVG 20010904//EN"
 "http://www.w3.org/TR/2001/REC-SVG-20010904/DTD/svg10.dtd">
<svg version="1.0" xmlns="http://www.w3.org/2000/svg"
 width="3000.000000pt" height="3000.000000pt" viewBox="0 0 3000.000000 3000.000000"
 preserveAspectRatio="xMidYMid meet">

<g transform="translate(0.000000,3000.000000) scale(0.100000,-0.100000)"
fill="#000000" stroke="none">
<path d="M17196 22810 c-21 -19 -53 -65 -72 -104 -21 -42 -53 -87 -79 -111
-41 -37 -90 -115 -205 -325 -26 -47 -69 -122 -96 -166 -27 -45 -92 -159 -144
-253 -52 -95 -142 -256 -201 -359 -58 -103 -138 -250 -179 -327 -84 -160 -170
-312 -210 -370 -15 -22 -48 -80 -73 -130 -24 -49 -66 -125 -91 -169 -26 -43
-76 -137 -112 -208 -36 -71 -82 -155 -103 -186 -38 -56 -74 -119 -186 -322
-32 -58 -72 -127 -88 -155 -17 -27 -53 -90 -80 -140 -27 -49 -76 -137 -108
-195 -33 -58 -79 -146 -103 -195 -23 -50 -92 -174 -153 -275 -60 -102 -148
-255 -195 -340 -155 -281 -256 -459 -276 -487 -11 -15 -50 -88 -87 -162 -37
-74 -84 -162 -105 -195 -50 -80 -193 -339 -247 -447 -77 -152 -120 -402 -110
-639 10 -255 81 -389 274 -517 46 -31 121 -58 131 -48 3 2 -10 27 -27 55 -37
60 -85 194 -105 294 -48 237 -6 540 96 693 15 23 28 44 28 46 0 3 27 53 60
112 33 59 60 109 60 111 0 3 32 57 71 122 67 110 139 250 139 270 0 5 16 29
35 53 19 24 35 47 35 51 0 3 25 50 55 102 31 53 59 104 62 114 4 9 34 62 67
117 32 55 84 147 113 205 30 58 63 114 74 126 10 11 19 24 19 29 0 5 36 68 79
140 44 72 97 166 117 210 21 44 58 116 83 160 58 102 77 136 130 237 24 46 53
97 66 113 12 17 39 64 59 105 21 41 44 82 51 90 7 8 34 56 60 105 73 140 108
199 138 234 15 18 27 38 27 44 0 6 17 40 39 76 21 36 42 77 46 90 4 13 30 63
58 110 46 79 94 167 162 296 14 28 42 75 61 105 80 124 144 240 236 425 22 43
53 98 69 122 17 24 37 60 46 80 8 21 28 56 43 78 15 22 43 72 62 110 19 39 62
115 94 170 32 55 77 138 101 184 23 46 51 94 62 105 11 12 29 42 41 68 11 26
25 50 31 53 5 4 22 32 38 63 41 83 65 126 126 227 99 162 137 252 138 320 1
48 -5 68 -26 102 -15 24 -27 47 -27 51 0 5 -8 18 -17 30 -10 11 -23 28 -28 38
-10 15 -14 14 -49 -16z"/>
<path d="M18727 20189 c-4 -13 -24 -51 -46 -84 -22 -33 -41 -72 -41 -86 0 -34
129 -289 208 -410 80 -123 101 -160 166 -294 66 -137 74 -160 41 -120 -31 37
-223 359 -265 445 -18 36 -45 83 -60 105 -15 22 -37 60 -50 85 -26 51 -67 107
-124 167 -73 78 -148 67 -243 -37 -31 -33 -57 -59 -59 -57 -2 2 3 25 11 52 8
26 15 54 15 60 0 7 -26 51 -57 100 -47 72 -58 84 -64 68 -4 -11 -19 -27 -33
-36 -16 -11 -26 -27 -26 -42 0 -13 -4 -26 -9 -29 -8 -6 -36 -54 -114 -196 -16
-30 -34 -59 -38 -65 -5 -5 -9 -17 -9 -26 0 -10 -3 -19 -7 -21 -13 -5 -83 -117
-83 -132 0 -8 -3 -16 -7 -18 -5 -1 -23 -32 -42 -68 -19 -36 -45 -81 -58 -100
-13 -19 -23 -42 -23 -52 0 -9 -10 -29 -22 -45 -13 -15 -28 -38 -35 -50 -7 -11
-35 -63 -64 -114 -28 -52 -62 -110 -75 -129 -13 -19 -24 -40 -24 -46 0 -6 -9
-23 -20 -37 -11 -13 -38 -60 -61 -103 -23 -44 -54 -98 -70 -122 -16 -24 -29
-47 -29 -53 0 -15 -51 -112 -71 -134 -10 -11 -34 -54 -53 -95 -19 -41 -46 -90
-60 -109 -14 -19 -26 -41 -26 -49 0 -9 -11 -30 -25 -48 -14 -18 -25 -41 -25
-50 0 -10 -13 -32 -29 -49 -16 -16 -39 -55 -51 -85 -12 -30 -32 -69 -44 -85
-29 -37 -96 -170 -96 -188 0 -7 -11 -24 -26 -37 -14 -14 -34 -43 -45 -65 -41
-84 -112 -211 -135 -242 -13 -17 -24 -38 -24 -46 0 -8 -11 -30 -24 -49 -13
-19 -25 -39 -27 -44 -5 -12 -69 -119 -92 -152 -24 -38 -127 -251 -127 -265 0
-15 -34 -104 -43 -113 -11 -12 -8 -522 3 -529 6 -3 10 -18 10 -32 0 -14 13
-51 30 -82 16 -31 42 -85 57 -121 15 -36 30 -67 34 -70 5 -5 29 -49 80 -152
11 -20 24 -40 29 -43 6 -4 21 -30 34 -59 13 -28 35 -71 50 -95 15 -23 48 -82
73 -129 25 -48 56 -100 69 -115 13 -16 24 -33 24 -39 0 -6 32 -66 70 -132 39
-67 70 -127 70 -134 0 -7 4 -12 9 -12 5 0 14 -12 20 -27 15 -36 63 -126 77
-144 6 -8 30 -50 54 -94 23 -44 48 -87 55 -95 7 -8 20 -31 28 -50 9 -19 33
-65 54 -101 21 -36 55 -97 77 -135 21 -38 51 -91 67 -117 16 -27 29 -53 29
-59 0 -6 11 -26 26 -45 14 -18 30 -47 36 -63 5 -17 31 -66 57 -109 25 -44 64
-112 86 -152 22 -40 52 -94 66 -119 15 -25 43 -75 63 -113 20 -37 52 -92 71
-122 19 -30 35 -61 35 -69 0 -9 16 -33 35 -55 19 -21 35 -46 35 -56 0 -9 9
-30 20 -46 12 -15 30 -47 41 -71 28 -58 43 -85 61 -105 8 -10 20 -32 25 -48 6
-17 22 -48 37 -69 14 -21 26 -43 26 -47 0 -5 14 -28 30 -51 17 -22 30 -46 30
-51 0 -6 6 -18 14 -26 8 -9 40 -67 71 -128 32 -62 61 -113 65 -113 4 0 11 -11
14 -25 4 -14 32 -69 64 -122 32 -54 71 -123 86 -153 16 -30 36 -64 46 -75 9
-11 34 -56 55 -100 21 -44 50 -98 64 -120 14 -22 42 -71 62 -110 20 -38 52
-96 70 -127 19 -31 48 -80 64 -108 17 -29 37 -64 45 -79 9 -14 51 -91 93 -171
81 -151 89 -166 121 -214 11 -16 35 -59 54 -95 18 -36 42 -75 53 -87 10 -11
19 -25 19 -30 0 -13 58 -124 76 -144 7 -9 41 -72 76 -140 35 -69 70 -136 79
-150 33 -53 159 -278 192 -345 20 -38 46 -83 59 -98 13 -15 30 -44 37 -65 8
-20 26 -53 42 -73 15 -19 31 -48 35 -65 3 -16 15 -38 25 -49 10 -12 24 -36 31
-55 6 -19 24 -52 38 -75 54 -80 117 -191 129 -225 6 -19 24 -48 40 -65 15 -16
38 -57 51 -90 13 -33 36 -76 52 -95 15 -19 28 -39 28 -45 0 -6 11 -27 25 -47
14 -20 25 -44 25 -54 0 -9 12 -33 28 -53 15 -20 49 -79 76 -131 27 -52 58
-108 70 -125 23 -32 50 -86 48 -96 0 -3 15 -21 33 -39 23 -22 35 -43 35 -61 0
-14 7 -32 15 -39 8 -6 17 -22 21 -33 3 -12 22 -43 40 -70 19 -26 34 -52 34
-59 0 -6 11 -26 25 -44 14 -18 25 -37 25 -42 0 -5 13 -26 30 -47 16 -20 32
-46 36 -58 11 -40 47 -112 84 -168 20 -31 50 -83 65 -115 16 -32 39 -76 52
-96 13 -21 20 -38 17 -38 -4 0 5 -15 20 -34 14 -19 26 -40 26 -47 0 -7 11 -26
23 -43 13 -17 45 -71 72 -121 26 -49 56 -101 66 -114 11 -13 19 -27 19 -32 0
-5 25 -52 56 -105 31 -53 61 -108 67 -123 6 -14 19 -38 29 -52 9 -14 35 -61
58 -105 52 -101 75 -142 93 -162 8 -9 27 -46 42 -82 16 -36 41 -79 57 -95 16
-18 28 -42 28 -58 0 -15 4 -27 8 -27 11 0 58 -72 68 -102 3 -13 21 -45 39 -73
40 -62 73 -121 143 -255 30 -58 61 -112 68 -121 8 -8 14 -19 14 -22 0 -4 14
-29 30 -55 17 -27 30 -56 30 -64 0 -8 9 -23 21 -34 12 -10 34 -46 50 -79 16
-33 45 -89 66 -125 20 -36 46 -84 58 -107 12 -23 31 -54 42 -70 11 -15 41 -71
68 -123 26 -52 53 -102 60 -110 11 -14 61 -100 110 -188 11 -21 28 -48 37 -62
9 -14 19 -36 23 -50 4 -14 18 -39 31 -57 13 -17 29 -42 34 -55 6 -13 26 -50
45 -83 19 -33 46 -85 60 -115 14 -30 32 -61 40 -70 8 -9 28 -43 46 -75 17 -33
40 -69 50 -80 19 -20 35 -20 2002 -23 1481 -2 1996 0 2037 9 67 14 164 53 203
83 40 29 157 143 157 152 0 4 15 25 33 48 65 79 77 133 77 344 l0 187 -63 126
c-35 69 -75 141 -90 158 -15 18 -27 39 -27 46 0 8 -9 29 -21 47 -11 18 -38 61
-59 94 -21 34 -41 72 -45 85 -4 13 -27 53 -50 89 -24 36 -50 82 -59 103 -9 22
-27 52 -41 69 -14 16 -36 54 -50 83 -13 29 -29 56 -35 60 -6 4 -22 30 -37 58
-50 100 -74 143 -126 228 -28 48 -65 112 -82 144 -16 32 -44 72 -61 89 -19 19
-34 46 -38 69 -4 21 -27 68 -52 105 -25 37 -61 99 -80 138 -19 40 -41 78 -50
85 -8 7 -33 49 -55 93 -23 45 -52 95 -65 113 -13 17 -24 36 -24 40 0 5 -11 25
-26 44 -14 19 -33 52 -43 74 -10 22 -31 61 -47 85 -16 25 -37 61 -47 80 -18
35 -36 68 -110 193 -21 36 -44 71 -52 77 -8 7 -15 19 -15 27 0 17 -76 159
-100 188 -9 11 -31 48 -47 81 -17 34 -42 77 -57 96 -14 19 -26 38 -26 42 0 3
-19 37 -42 74 -52 80 -54 84 -98 169 -19 38 -47 83 -62 101 -15 18 -28 40 -28
49 0 9 -11 31 -25 49 -14 18 -25 38 -25 45 0 6 -17 37 -38 68 -21 31 -78 128
-127 216 -48 88 -110 193 -137 233 -26 40 -48 79 -48 86 0 8 -11 28 -25 44
-14 17 -25 35 -25 41 0 6 -18 41 -40 77 -22 36 -40 69 -40 73 0 3 -16 28 -35
55 -19 27 -35 54 -35 59 0 5 -18 36 -39 68 -22 33 -43 70 -47 82 -4 12 -17 38
-30 57 -13 19 -24 40 -24 46 0 6 -11 21 -24 33 -14 13 -30 37 -37 54 -7 18
-22 46 -34 62 -12 17 -29 44 -37 60 -80 153 -113 214 -132 240 -29 41 -41 61
-77 130 -46 89 -60 113 -110 190 -25 39 -57 95 -71 125 -15 30 -47 86 -72 125
-25 38 -46 74 -46 81 0 6 -25 50 -55 99 -30 48 -55 90 -55 93 0 3 -11 20 -25
38 -14 18 -25 41 -25 52 0 10 -11 29 -25 42 -14 13 -37 48 -51 78 -14 30 -53
100 -86 156 -33 55 -79 135 -101 176 -21 41 -49 88 -61 105 -27 38 -41 61 -66
110 -22 44 -27 52 -83 138 -20 31 -49 81 -62 110 -14 28 -38 72 -54 97 -16 25
-48 81 -71 125 -23 44 -52 91 -66 106 -13 14 -24 29 -24 34 0 16 -56 121 -91
170 -19 28 -48 77 -63 110 -15 33 -33 66 -41 75 -7 8 -30 47 -51 85 -20 39
-45 81 -54 95 -10 14 -30 50 -45 80 -15 30 -33 62 -40 70 -8 8 -35 56 -60 105
-26 50 -60 106 -75 125 -15 20 -37 56 -50 80 -12 25 -31 57 -41 72 -11 14 -19
31 -19 38 0 7 -11 25 -25 42 -14 16 -25 35 -25 42 0 7 -13 32 -30 54 -16 23
-30 46 -30 51 0 6 -26 52 -59 103 -32 51 -61 103 -65 115 -4 12 -17 34 -28 49
-12 15 -34 53 -49 84 -15 31 -41 76 -58 100 -17 24 -31 51 -31 60 0 10 -6 23
-14 29 -8 6 -20 26 -27 44 -7 18 -28 49 -46 70 -18 20 -33 44 -33 53 0 9 -16
39 -35 68 -19 29 -35 56 -35 60 0 3 -15 30 -34 59 -40 61 -79 128 -103 177
-10 19 -30 54 -45 77 -16 23 -28 46 -28 52 0 5 -20 39 -44 74 -25 36 -59 92
-76 125 -17 34 -38 66 -46 73 -8 6 -14 17 -14 24 0 14 -17 46 -65 125 -19 30
-52 89 -74 131 -21 41 -46 81 -55 88 -8 7 -20 29 -27 49 -7 20 -30 64 -52 97
-22 33 -62 103 -89 155 -27 52 -58 104 -69 116 -10 11 -19 25 -19 30 0 5 -16
34 -36 64 -19 30 -41 69 -48 86 -8 17 -29 51 -49 77 -19 25 -40 62 -47 82 -6
19 -15 35 -19 35 -5 0 -26 35 -49 78 -69 132 -77 147 -83 152 -7 6 -90 154
-139 248 -19 37 -45 82 -57 99 -13 17 -23 34 -23 39 0 4 -11 21 -23 38 -13 17
-32 49 -42 71 -10 22 -28 54 -40 70 -12 17 -43 71 -70 120 -26 50 -54 97 -61
106 -8 8 -14 20 -14 26 0 5 -14 29 -30 52 -17 23 -54 85 -82 139 -28 53 -59
106 -69 117 -16 19 -56 90 -106 187 -13 26 -28 50 -33 53 -5 3 -25 40 -46 83
-20 42 -56 104 -79 137 -23 33 -45 72 -48 86 -4 14 -21 45 -39 69 -18 24 -52
80 -76 125 -41 75 -69 122 -114 187 -10 15 -18 30 -18 34 0 4 -13 28 -29 53
-16 25 -32 57 -36 71 -4 14 -19 41 -34 60 -30 40 -43 62 -87 145 -17 33 -50
92 -73 131 -22 39 -41 74 -41 77 0 4 -36 63 -80 133 -44 69 -83 136 -86 149
-3 13 -17 33 -30 46 -13 12 -24 28 -24 34 0 14 -30 73 -58 112 -12 17 -22 38
-22 46 0 8 -7 20 -15 27 -8 6 -32 44 -54 83 -21 40 -51 83 -66 97 -15 14 -30
34 -35 44 -6 18 -7 18 -13 -5z m-515 -386 c-65 -128 -152 -290 -199 -366 -29
-48 -79 -136 -109 -195 -31 -59 -66 -120 -79 -137 -12 -16 -33 -55 -47 -85
-14 -30 -47 -92 -74 -137 -27 -45 -69 -117 -93 -160 -24 -43 -67 -118 -96
-168 -29 -49 -60 -107 -69 -128 -13 -32 -93 -162 -117 -191 -25 -29 55 139
116 244 39 69 89 157 110 195 113 208 155 286 186 339 19 32 49 86 68 120 18
33 57 102 86 151 29 50 86 151 127 225 64 115 124 218 185 318 23 37 27 18 5
-25z m929 -710 c29 -37 77 -116 106 -176 30 -60 72 -132 94 -159 22 -28 56
-84 76 -126 35 -73 105 -193 149 -257 11 -16 51 -88 88 -159 37 -71 89 -161
115 -200 27 -39 77 -125 111 -191 35 -66 84 -149 110 -185 26 -36 72 -117 103
-180 31 -63 96 -180 146 -259 50 -79 93 -153 97 -165 9 -28 112 -213 140 -251
12 -16 42 -70 66 -120 46 -93 107 -195 139 -230 24 -28 180 -297 246 -425 29
-58 67 -124 83 -147 17 -23 53 -84 80 -136 27 -52 70 -128 95 -167 26 -40 68
-118 95 -174 27 -55 73 -135 104 -176 30 -41 81 -124 112 -185 32 -60 81 -144
110 -185 28 -41 68 -109 89 -150 21 -41 57 -104 80 -140 24 -36 89 -152 145
-259 56 -107 117 -214 135 -238 18 -24 70 -116 115 -205 92 -179 113 -216 185
-312 28 -37 83 -129 124 -204 41 -75 99 -184 131 -242 66 -124 102 -183 175
-294 29 -45 79 -130 109 -190 30 -59 64 -120 75 -135 11 -15 48 -81 82 -147
34 -65 95 -168 134 -229 39 -60 96 -155 127 -210 135 -244 322 -566 368 -635
21 -30 67 -109 102 -175 125 -230 194 -350 234 -410 22 -33 53 -91 69 -129 15
-37 38 -80 50 -95 48 -58 112 -173 141 -253 7 -21 11 -38 9 -38 -13 0 -92 121
-146 225 -34 66 -81 147 -104 180 -23 33 -56 90 -73 127 -17 38 -42 83 -55
100 -14 18 -37 58 -52 88 -15 30 -53 96 -85 145 -31 50 -97 160 -145 245 -198
349 -343 598 -408 700 -19 30 -51 89 -72 130 -21 41 -45 86 -55 100 -10 14
-30 50 -45 80 -15 30 -38 69 -50 85 -13 17 -40 64 -60 105 -20 41 -55 98 -76
126 -21 27 -48 72 -60 99 -12 27 -41 80 -65 117 -24 37 -50 84 -59 104 -8 20
-34 68 -59 107 -24 40 -69 117 -101 172 -32 55 -82 136 -111 180 -28 44 -76
130 -106 190 -30 61 -101 187 -158 280 -57 94 -114 193 -126 222 -13 29 -48
93 -79 142 -30 49 -55 92 -55 96 0 4 -15 28 -34 54 -18 25 -55 87 -81 136 -27
50 -72 126 -100 170 -28 44 -75 124 -103 178 -29 55 -63 113 -77 131 -32 42
-97 158 -153 271 -24 50 -59 110 -76 135 -18 25 -57 90 -86 145 -30 55 -82
146 -117 201 -35 56 -73 123 -84 150 -12 27 -31 63 -43 79 -12 17 -42 64 -66
105 -24 41 -73 122 -109 180 -36 58 -92 157 -124 220 -33 63 -72 133 -87 155
-15 22 -51 85 -80 140 -30 55 -78 141 -109 190 -55 92 -127 217 -203 358 -24
43 -67 115 -96 160 -30 45 -71 117 -93 159 -21 42 -60 111 -86 152 -74 116
-113 184 -156 271 -22 44 -52 96 -67 115 -15 19 -40 60 -55 90 -15 30 -38 69
-50 85 -13 17 -40 64 -60 105 -21 41 -62 111 -91 156 -30 45 -69 112 -86 150
-18 38 -60 109 -92 158 -32 49 -76 127 -97 173 -55 119 -53 121 22 26z m5219
-9035 c37 -44 85 -120 122 -193 34 -66 91 -170 128 -231 37 -61 80 -139 96
-175 30 -68 67 -129 120 -194 18 -22 64 -106 103 -185 40 -82 90 -169 116
-200 25 -30 74 -111 109 -180 77 -152 170 -316 221 -390 20 -30 55 -91 77
-135 23 -44 51 -93 64 -110 12 -17 50 -86 84 -153 33 -68 86 -155 117 -195 30
-40 69 -99 85 -132 32 -63 158 -292 213 -385 18 -30 42 -73 54 -95 12 -22 44
-76 72 -120 46 -73 127 -228 156 -300 7 -17 44 -70 83 -120 38 -49 79 -114 90
-144 12 -30 30 -66 40 -81 11 -15 52 -88 91 -161 39 -74 88 -156 109 -184 21
-27 61 -98 89 -156 28 -58 70 -135 93 -171 112 -172 228 -387 228 -421 -1 -20
-3 -20 -25 8 -14 17 -39 57 -56 90 -18 33 -46 85 -64 115 -18 30 -52 89 -77
130 -24 41 -50 91 -58 110 -8 19 -40 73 -71 120 -31 47 -82 135 -114 195 -32
61 -65 121 -75 135 -10 14 -43 72 -75 129 -31 58 -71 121 -88 142 -18 20 -47
73 -65 117 -18 44 -44 95 -57 114 -13 18 -36 56 -51 83 -14 28 -42 71 -60 96
-19 26 -46 73 -61 105 -14 32 -48 92 -75 134 -26 41 -48 80 -48 86 0 6 -17 37
-38 70 -21 32 -55 90 -77 129 -21 38 -67 114 -103 169 -35 54 -83 138 -105
185 -22 47 -55 106 -72 131 -17 25 -58 92 -90 150 -32 58 -80 139 -106 180
-26 41 -61 104 -78 140 -16 36 -38 77 -50 91 -11 15 -41 66 -67 115 -25 48
-65 115 -89 148 -23 34 -73 120 -110 191 -38 72 -81 148 -95 170 -57 84 -119
193 -158 276 -23 47 -52 99 -65 115 -13 16 -61 97 -107 179 -46 83 -109 188
-140 235 -68 101 -171 300 -155 300 2 0 31 -33 65 -72z"/>
<path d="M14990 14727 c0 -9 12 -29 26 -44 l26 -28 -23 40 c-29 51 -29 51 -29
32z"/>
<path d="M15131 14465 c0 -11 6 -31 14 -45 8 -14 14 -34 15 -46 0 -32 58 -141
87 -164 44 -35 45 -22 3 57 -22 42 -40 82 -40 90 0 7 -7 16 -15 19 -8 4 -12
10 -9 15 3 5 1 9 -4 9 -6 0 -12 10 -15 23 -4 12 -13 31 -21 42 l-15 20 0 -20z"/>
<path d="M15435 13866 c-12 -43 20 -167 58 -223 31 -46 115 -119 125 -109 2 3
-3 21 -12 40 -9 19 -16 39 -16 45 0 5 -6 14 -14 18 -7 4 -23 28 -34 53 -12 25
-37 72 -56 106 -18 33 -36 69 -38 80 -4 15 -6 14 -13 -10z"/>
<path d="M11505 12250 c-160 -13 -232 -41 -312 -118 -54 -53 -86 -101 -183
-277 -45 -82 -104 -186 -130 -230 -26 -44 -91 -161 -143 -260 -109 -206 -200
-369 -258 -464 -22 -36 -79 -136 -126 -221 -47 -85 -127 -229 -178 -320 -51
-91 -127 -228 -170 -305 -43 -77 -102 -183 -130 -235 -29 -52 -83 -149 -120
-215 -37 -66 -87 -154 -110 -196 -23 -42 -52 -90 -64 -107 -12 -18 -36 -62
-53 -99 -17 -38 -60 -117 -96 -178 -35 -60 -100 -173 -142 -250 -43 -77 -108
-194 -145 -260 -37 -66 -92 -165 -122 -220 -30 -55 -79 -140 -107 -190 -29
-49 -99 -178 -156 -285 -109 -206 -245 -448 -290 -515 -15 -22 -59 -100 -99
-173 -39 -72 -119 -216 -177 -320 -59 -103 -153 -272 -211 -377 -58 -104 -126
-226 -151 -270 -128 -224 -218 -388 -263 -478 -28 -54 -85 -158 -128 -231 -94
-158 -160 -275 -239 -421 -195 -358 -211 -384 -245 -389 -65 -10 -3721 -17
-3780 -7 -171 29 -314 171 -381 378 -27 81 -68 121 -154 147 -37 12 -55 -46
-56 -179 -1 -123 23 -224 69 -286 14 -19 33 -47 42 -64 34 -58 137 -150 210
-188 151 -79 108 -76 1107 -70 524 4 886 2 886 -3 0 -5 464 -8 1132 -6 987 2
1135 4 1155 17 13 9 23 23 23 32 0 9 7 24 15 33 15 17 55 84 80 135 8 17 28
50 45 75 16 25 30 50 30 56 0 14 16 44 51 99 14 22 39 67 54 99 16 33 41 78
56 100 15 23 38 61 52 86 51 93 138 244 157 270 11 16 20 34 20 42 0 7 16 39
35 71 19 31 32 57 29 57 -3 0 4 13 15 28 11 16 33 53 49 83 16 30 57 104 92
164 35 61 73 128 85 150 11 22 37 69 57 105 20 36 49 90 66 120 78 145 122
223 132 235 6 8 26 42 44 77 18 35 57 103 85 153 29 49 61 106 71 125 32 65
170 310 189 338 33 48 156 263 236 412 42 80 81 150 84 155 4 6 17 33 29 62
12 28 42 81 67 117 25 37 45 72 45 79 0 6 9 26 21 42 11 17 36 59 55 95 19 36
48 88 64 115 16 28 32 56 36 64 4 8 41 74 82 145 41 72 85 154 98 181 13 28
47 88 75 135 92 153 121 204 135 244 8 22 26 54 39 72 14 18 25 36 25 40 0 4
11 22 25 40 14 18 25 38 25 44 0 6 15 35 34 64 19 30 51 85 72 122 76 138 250
460 288 529 11 22 31 53 44 69 12 16 22 34 22 40 0 6 11 27 23 46 13 19 48 80
77 135 29 55 71 132 95 170 23 39 67 118 98 177 31 59 71 131 89 160 44 70 48
77 110 188 81 145 80 143 178 330 51 96 95 177 99 180 4 3 22 34 40 70 19 36
39 71 45 79 15 19 32 50 55 96 77 162 185 303 256 335 66 30 168 43 232 30
144 -30 239 -114 333 -295 29 -55 61 -112 71 -127 11 -14 19 -30 19 -36 0 -5
12 -27 26 -48 28 -40 51 -81 139 -244 29 -52 85 -153 125 -225 40 -71 82 -148
93 -170 10 -22 30 -54 43 -72 35 -47 133 -233 149 -282 4 -14 39 -81 78 -150
38 -69 79 -144 90 -166 11 -22 27 -51 37 -65 10 -14 47 -79 82 -145 70 -129
211 -380 228 -405 6 -8 20 -35 31 -60 12 -25 32 -59 44 -76 13 -16 30 -46 39
-65 9 -19 39 -72 66 -119 27 -47 65 -115 84 -151 19 -37 45 -84 59 -105 13
-22 54 -95 91 -164 37 -69 76 -138 86 -155 11 -16 28 -46 37 -65 10 -19 20
-37 23 -40 6 -6 36 -62 110 -205 31 -60 97 -180 146 -265 49 -85 96 -169 103
-187 7 -17 21 -39 32 -49 10 -9 19 -23 19 -31 0 -7 10 -30 23 -51 13 -20 37
-62 54 -92 16 -30 41 -73 53 -95 38 -66 201 -356 227 -405 13 -25 35 -63 48
-85 13 -22 38 -68 55 -102 17 -34 48 -88 69 -120 21 -32 49 -80 63 -108 36
-75 128 -245 154 -287 13 -20 39 -65 57 -100 19 -35 44 -79 55 -98 12 -19 31
-54 41 -77 11 -23 36 -66 55 -95 20 -29 36 -56 36 -60 0 -4 15 -32 34 -61 19
-29 41 -69 49 -89 8 -19 20 -38 25 -42 6 -3 14 -21 18 -39 3 -17 17 -46 31
-63 13 -17 34 -51 47 -75 62 -117 141 -256 157 -278 11 -13 19 -29 19 -35 0
-6 25 -53 55 -104 30 -52 62 -108 69 -126 8 -19 30 -57 50 -86 20 -29 36 -57
36 -64 0 -6 11 -27 23 -46 13 -19 49 -82 79 -140 164 -308 189 -351 231 -397
l30 -32 1991 5 c1095 2 2124 1 2286 -4 204 -6 303 -5 320 2 41 18 38 56 -14
135 -25 38 -46 75 -46 80 0 22 -42 31 -141 31 -56 0 -147 7 -203 16 -92 15
-281 16 -2051 11 l-1950 -5 -30 33 c-16 18 -70 108 -119 201 -90 172 -169 317
-236 434 -21 36 -81 146 -135 245 -54 99 -122 221 -150 270 -29 50 -96 170
-149 267 -53 98 -114 208 -137 244 -22 37 -45 78 -50 91 -5 13 -30 60 -57 106
-70 118 -145 251 -233 412 -42 77 -100 183 -129 235 -30 52 -135 239 -234 415
-99 176 -203 363 -231 415 -28 52 -106 191 -174 309 -67 118 -127 225 -132
239 -10 26 -80 155 -179 327 -60 105 -171 304 -273 490 -33 61 -85 153 -115
205 -48 83 -194 342 -327 580 -23 41 -80 143 -127 225 -89 158 -116 210 -218
418 -35 71 -80 155 -101 187 -21 32 -76 128 -122 212 -119 214 -255 459 -309
553 -25 44 -71 125 -101 180 -99 180 -211 276 -358 309 -80 18 -286 26 -404
16z"/>
<path d="M11888 7943 c-20 -38 -41 -86 -48 -108 -7 -22 -15 -43 -19 -47 -3 -4
-29 7 -56 25 -42 27 -60 32 -111 32 -54 0 -66 -4 -118 -40 -62 -42 -76 -39
-76 16 0 34 -67 169 -88 176 -19 8 -69 -46 -78 -84 -4 -16 -12 -33 -20 -39 -7
-5 -33 -50 -58 -98 -25 -48 -58 -104 -74 -124 -15 -21 -47 -75 -71 -122 -24
-47 -54 -103 -67 -125 -14 -22 -34 -60 -46 -85 -11 -24 -41 -76 -66 -115 -25
-38 -51 -85 -59 -103 -7 -18 -40 -78 -73 -133 -33 -56 -60 -107 -60 -114 0 -7
-6 -18 -14 -24 -18 -15 -66 -113 -66 -134 0 -9 -9 -22 -20 -29 -11 -7 -20 -16
-20 -19 0 -4 -31 -62 -70 -129 -38 -67 -70 -124 -70 -126 0 -2 -29 -56 -65
-119 -36 -63 -65 -117 -65 -121 0 -4 -10 -21 -23 -38 -13 -17 -36 -56 -51 -86
-16 -30 -34 -62 -41 -70 -7 -8 -18 -32 -24 -52 -7 -20 -19 -42 -27 -49 -8 -6
-23 -31 -33 -55 -11 -24 -33 -64 -50 -88 -17 -25 -54 -89 -82 -143 -29 -54
-60 -110 -70 -125 -11 -14 -19 -30 -19 -34 0 -4 -6 -15 -14 -23 -8 -9 -38 -61
-66 -116 -29 -55 -61 -112 -71 -127 -11 -14 -19 -31 -19 -38 0 -7 -11 -25 -25
-42 -14 -16 -25 -36 -25 -45 0 -8 -9 -28 -21 -44 -11 -16 -22 -36 -23 -44 -1
-8 -9 -22 -18 -32 -22 -24 -98 -159 -98 -174 0 -6 -13 -27 -30 -46 -16 -18
-30 -41 -30 -50 0 -9 -29 -60 -65 -114 -72 -106 -79 -134 -39 -149 36 -14
4546 -13 4597 1 53 14 53 38 0 107 -19 25 -39 57 -44 70 -5 13 -19 38 -32 55
-35 50 -45 68 -77 132 -34 68 -51 97 -66 116 -6 8 -32 55 -58 104 -26 50 -58
104 -70 120 -13 17 -28 46 -35 65 -6 19 -20 43 -30 55 -10 11 -24 36 -31 55
-8 19 -21 46 -30 60 -34 50 -77 127 -114 200 -20 41 -51 98 -67 125 -16 28
-36 64 -44 80 -9 17 -24 44 -34 60 -22 37 -64 113 -103 185 -17 30 -36 62 -42
70 -23 27 -106 179 -106 193 0 7 -5 18 -11 24 -6 6 -26 39 -45 74 -64 122 -82
154 -118 213 -20 33 -36 67 -36 76 0 9 -11 27 -25 40 -14 13 -39 53 -56 89
-17 36 -34 73 -39 81 -8 13 -106 182 -136 235 -7 11 -26 49 -44 85 -18 36 -44
78 -57 93 -12 16 -23 34 -23 42 0 7 -16 36 -35 64 -19 28 -35 55 -35 60 0 5
-6 16 -13 23 -26 26 -47 63 -47 81 0 10 -15 42 -33 70 -61 95 -71 112 -109
187 -66 131 -145 250 -167 250 -4 0 -23 -30 -43 -67z"/>
<path d="M19147 7275 c-20 -50 10 -160 59 -219 38 -45 79 -74 90 -63 4 4 -12
44 -36 89 -24 46 -58 112 -75 147 -24 47 -34 59 -38 46z"/>
<path d="M20300 5199 c1 -44 45 -116 88 -143 16 -9 16 -1 -1 16 -6 7 -29 46
-50 87 -34 67 -37 70 -37 40z"/>
</g>
</svg>
