<svg xmlns="http://www.w3.org/2000/svg" viewBox="0 0 24.213 18.839"><path fill="#eb5c44" d="M15.651 18.84c-.323 0-.646-.071-.893-.214l-11.517-6.65c-.492-.283-.892-.977-.892-1.545V8.87a.12.12 0 1 1 .24 0v1.56c0 .484.354 1.097.773 1.339l11.517 6.649c.418.242 1.126.242 1.545 0l3.965-2.29c.183-.105.284-.239.284-.376 0-.138-.101-.271-.284-.377l-8.691-5.018c-.26-.15-.403-.357-.403-.584 0-.227.143-.435.403-.585l1.677-.968c.492-.285 1.293-.285 1.786 0l2.229 1.287c.419.241 1.126.241 1.545 0l1.677-.969c.42-.242.773-.854.773-1.338V5.64a.12.12 0 0 1 .24 0V7.2c0 .568-.4 1.262-.893 1.546l-1.677.968c-.492.285-1.293.285-1.785 0l-2.23-1.286c-.418-.242-1.126-.242-1.545 0l-1.677.968c-.182.105-.283.24-.283.377s.1.27.283.376l8.691 5.018c.26.15.404.358.404.585 0 .227-.143.434-.404.585l-3.965 2.29c-.246.142-.57.212-.893.212z"/><path fill="#ffec7a" d="M5.206 5.332c0 1.388-.976 3.076-2.178 3.77-1.202.695-2.176.131-2.176-1.257 0-1.389.974-3.076 2.176-3.77 1.202-.694 2.178-.132 2.178 1.257z"/><path fill="#f5a52e" d="M.852 7.845c0-1.389.974-3.076 2.176-3.77.567-.328 1.084-.376 1.471-.19l-.782-.455h-.001c-.395-.226-.938-.193-1.54.154C.977 4.278 0 5.967 0 7.354 0 8.087.271 8.588.702 8.8l.776.45c-.387-.231-.626-.715-.626-1.404z"/><path fill="#f5a52e" d="M4.767 5.585c0 1.108-.779 2.457-1.739 3.01-.541.313-1.024.307-1.342.042.31.151.722.114 1.176-.149.96-.554 1.739-1.902 1.739-3.01 0-.485-.148-.842-.395-1.046.345.167.561.569.561 1.153z"/><path fill="#fff" d="M4.6 5.478c0 1.108-.778 2.456-1.738 3.01-.454.263-.867.3-1.176.15-.248-.205-.397-.562-.397-1.046 0-1.109.78-2.457 1.74-3.01.453-.264.866-.3 1.177-.15.247.204.395.561.395 1.046z"/><path fill="#eb5c44" d="m2.556 5.379.575-.332.663 2.063-.507.292-.13-.506-.646.373-.13.656-.487.282zm.052 1.403.452-.26-.049-.198c-.059-.21-.117-.465-.172-.688l-.013.007c-.052.289-.107.606-.166.884z"/><path fill="#ff8530" d="M24.213 2.046c0 1.388-.975 3.076-2.177 3.77-1.202.695-2.177.13-2.177-1.257 0-1.389.975-3.077 2.177-3.771s2.177-.132 2.177 1.258z"/><path fill="#f26716" d="M19.86 4.56c0-1.39.974-3.078 2.176-3.772.567-.327 1.084-.375 1.47-.19l-.782-.454h-.001c-.394-.227-.937-.193-1.539.153-1.201.694-2.177 2.383-2.177 3.771 0 .731.272 1.233.702 1.444l.777.45c-.387-.23-.627-.714-.627-1.403z"/><path fill="#f26716" d="M23.774 2.299c0 1.108-.778 2.457-1.738 3.01-.542.313-1.024.307-1.343.042.31.151.722.113 1.176-.149.96-.554 1.739-1.902 1.739-3.01 0-.485-.147-.842-.395-1.047.346.167.561.57.561 1.154z"/><path fill="#fff" d="M23.608 2.191c0 1.108-.778 2.457-1.738 3.011-.454.262-.867.3-1.177.148-.247-.203-.396-.56-.396-1.044 0-1.11.78-2.458 1.74-3.011.453-.264.866-.3 1.177-.15.247.205.394.562.394 1.046z"/><path fill="#517fa2" d="m21.232 2.545.725-.418c.438-.253.779-.311.779.158 0 .217-.104.513-.276.688v.015c.215-.06.38.028.38.355 0 .499-.364.93-.822 1.194l-.786.454zm.702.574c.234-.135.334-.306.334-.482 0-.191-.107-.2-.33-.071l-.228.131v.551zm.045 1.013c.26-.15.393-.332.393-.557 0-.214-.13-.225-.393-.073l-.27.156v.63z"/></svg>
