<svg xmlns="http://www.w3.org/2000/svg" xml:space="preserve" viewBox="0 0 500 448.57239"><path fill="#afdde9" d="M83.765238 8.69482c-41.80988 3.30078-74.81768 39.60936-71.5169 81.41924 2.20052 57.21352 75.91794 130.93094 82.5195 130.93094 6.60156 0 70.41664-85.82028 68.21612-136.43224-1.10026-41.80988-36.30858-75.91794-79.21872-75.91794Zm4.40104 105.62496c-16.5039 1.10026-30.80728-12.10286-31.90754-28.60676-1.10026-16.5039 12.10286-30.80728 28.60676-31.90754 16.5039-1.10026 30.80728 12.10286 31.90754 28.60676 0 16.5039-12.10286 30.80728-28.60676 31.90754z"/><path fill="#6ba6cb" stroke="#6ba6cb" stroke-miterlimit="10" stroke-width="10.7880493" d="M85.965758 221.045S-22.959982 91.21432 39.754838 24.09846c0 0-102.32418 42.91014 46.21092 196.94654z"/><path fill="none" stroke="#105da6" stroke-miterlimit="10" stroke-width="10.7880493" d="M85.965758 5.39404c-44.0104 0-80.31898 36.30858-80.31898 80.31898 0 58.31378 75.91794 136.43224 82.5195 136.43224 6.60156 0 78.11846-84.72002 78.11846-136.43224-1.10026-44.0104-36.30858-80.31898-80.31898-80.31898zm0 107.82548c-16.5039 0-29.70702-14.30338-29.70702-31.90754 0-16.5039 14.30338-29.70702 31.90754-29.70702 16.5039 0 29.70702 14.30338 29.70702 30.80728-1.10026 16.5039-15.40364 30.80728-31.90754 30.80728 0 0-1.10026 0 0 0z"/><path fill="#afdde9" d="M406.141418 197.93954c-46.21092 3.30078-81.41924 41.80988-78.11846 88.0208 2.20052 61.61456 82.5195 141.93354 89.12106 140.83328 6.60156-1.10026 75.91794-93.5221 73.71742-147.43484-1.10026-45.11066-38.5091-82.5195-84.72002-81.41924zm3.30078 113.32678c-17.60416 1.10026-33.0078-13.20312-34.10806-30.80728-1.10026-17.60416 13.20312-33.0078 30.80728-34.10806 17.60416-1.10026 33.0078 13.20312 34.10806 30.80728 1.10026 18.70442-13.20312 33.0078-30.80728 34.10806z"/><path fill="#6ba6cb" stroke="#6ba6cb" stroke-miterlimit="10" stroke-width="11.67595912" d="M407.241678 427.89388s-117.72782-139.73302-49.5117-213.45044c0 0-110.026 46.21092 49.5117 213.45044z"/><path fill="none" stroke="#105da6" stroke-miterlimit="10" stroke-width="11.67595912" d="M407.241678 194.63876c-47.31118 0-86.92054 38.5091-86.92054 86.92054 0 62.71482 81.41924 147.43484 89.12106 147.43484 7.70182 0 84.72002-91.32158 84.72002-147.43484 0-48.41144-38.5091-86.92054-86.92054-86.92054zm0 115.5273c-18.70442-1.10026-33.0078-15.40364-31.90754-34.10806 1.10026-18.70442 15.40364-33.0078 34.10806-31.90754 17.60416 1.10026 31.90754 15.40364 31.90754 33.0078 0 18.70442-15.40364 33.0078-34.10806 33.0078z"/><path d="M85.965758 236.44864s4.40104 0 12.10286-1.10026"/><path fill="none" stroke="#105da6" stroke-dasharray="23.80302484 23.80302484" stroke-miterlimit="10" stroke-width="5.5013" d="M121.174078 234.24812c67.11586-3.30078 200.24732-1.10026 163.93874 68.21612-45.11066 86.92054-189.24472-63.81508-268.46344 49.5117-20.90494 29.70702-9.90234 108.92574 355.38398 91.32158 7.70182 0 15.40364-1.10026 22.0052-1.10026"/><path d="M405.041158 442.19726c4.40104 0 7.70182 0 12.10286-1.10026"/></svg>
